<mxfile host="app.diagrams.net" modified="2023-05-15T15:31:49.274Z" agent="Mozilla/5.0 (Windows NT 10.0; Win64; x64) AppleWebKit/537.36 (KHTML, like Gecko) Chrome/113.0.0.0 Safari/537.36" etag="eIE5TFsyuz1kFGo9Rol-" version="21.3.0" type="device">
  <diagram name="Page-1" id="XhqAZdBEfsr6Qs3gqRZF">
    <mxGraphModel dx="1345" dy="885" grid="1" gridSize="10" guides="1" tooltips="1" connect="1" arrows="1" fold="1" page="1" pageScale="1" pageWidth="850" pageHeight="1100" math="0" shadow="0">
      <root>
        <mxCell id="0" />
        <mxCell id="1" parent="0" />
        <mxCell id="DhFTvpZ9b1hXIEYgZngR-1" value="" style="shape=image;verticalLabelPosition=bottom;labelBackgroundColor=default;verticalAlign=top;aspect=fixed;imageAspect=0;image=data:image/png,iVBORw0KGgoAAAANSUhEUgAABREAAANCCAYAAADxyIt8AAAABHNCSVQICAgIfAhkiAAAAAFzUkdCAK7OHOkAAAAEZ0FNQQAAsY8L/GEFAAAACXBIWXMAAA7DAAAOwwHHb6hkAAAAGXRFWHRTb2Z0d2FyZQBnbm9tZS1zY3JlZW5zaG907wO/PgAAACF0RVh0Q3JlYXRpb24gVGltZQAyMDIzOjA1OjE0IDE3OjE1OjA4lPU9fgAA6llJREFUeF7s3Q28ZVdZ5/m9w5BU0KYCgkXCS4FIQQRrTN9Q4ksBAmnTYGDsiabVTEc0HRlNZ7DjROlMtDUd0YxpmBj7ozEq6QnQ0XTbIaKxo3QkjRNLbqMFmFhoY/GSWIIkRSOpQJM96zlrPbeeu2rvffY+Z7/v3/fzWbVfzss999a5Z+/9v89aK02SF2UJUObaD/rlFV/rl3O2L/wsDvCzAAAM38bGKcnm5qNhCwAwCDvCNcWxgmuKG8Ptl3DNAWBYCBEBAAAmihARAAAATTkpLIHVSaWiVitiu53u5yINAAAAAABgxAgRAQAAAADow+4P+gYAI0B3ZgAAgImiOzMADJwGiIcZ/xDA8FGJiPbQzbkcXZ2L8bMBAADA1MkEK0fccowBorx2nSAGwGwQIgIYD8JFAKhFqhClGhEA0BPbXZmuywBGju7MAIZBw8GjJX+JrXIfAMA2dGkGgA5pdd6xcL5quyvbdQAYISoRgSGi4i6fhIcEiAAAABgLCQw1NLTrZXa56wBpXaJ7MoAK0iR5IZWI6Me1H/LLK17klzhuZ/jZHOVnAwBYz8bGjmRz81jYAgD0bm841z9YcK6/K9x+pMNrgR3hax5r8Gu28ZwAekUlIjBEEh4SIAIAAADzI+FhlwGikKCPsA/AElQiYlioTgQAoFFUIgIAWkGlITA7VCJiHCRc1IARAABUJgGiBIkAAADAOggRMSxSgUgVYnNkbEUdXxEAAAAAmkIXaGB2CBExDkXhIhWKAAAAAAAArSNEBLq250O+dWGuE7RQgQkAAAAAQKMIETFudH9uXxzI7Xbr0gAAAAAAwGwQIgJdO/Qi36y9H/INzZhrBSYAAAAAAC0hRMQ0Xf0h37C+OJA77NalAUNCF3YAADBW2dt8U+e4cxppADAwhIjAEBx8kW8W1Ynt4OcKYIY2N48lGxs7whYAYFT4YymAgUiT5IVZWAcwJBp0xeEi1sPPFUpPxun6jpmQEFHCRADAAOhEi/EwR3k4ZwEwEFQiYn7G0tU5rzpxXee571uautCtS8tzudsvbWqKfq5Dr1Ac+usDAABAO+LhhQCgJ4SIwNjs+5BvKh4zxQaFcWi4zMXuvtLy3O72SwOmghNyAADQl7zJFgFg4AgRMT9XuYO1tNgcJmO5w33f0tQtbl1anuvcfmlFrnU/K2lT0UblZ5OG/vq6xLhAAABgqrIHfQOAAWJMREBpgJgXMOJEGiBeMfGfV59jKGqF6V28J7dhXCBgJYyJCAAjoAFierpfAsCAECICQBlCREzNjvC+Olbwvlp2O0aLEBEAGsYfNgHMDCEigObpOIy26zSWIzREFwgRZ40gEQAaRIgIYGYYExEAgDmRcLAsIFx2OwAA8NadpC2eIBEABo4QEajicndwl4Zq4glcUE5PIKUCkSrEckyqAgAAhqStc5NL3XNKA4ABIUQEAAAAAKBr/AEZwMgwJiIA9OH88Jfl2zhxBNAdxkQEAADAqqhEBIB1Xfwh3wAAAAAAmChCRADoglQeavWhkApEqhABAAAAACNBiAgA67rpRb4BwMBJV2bp0gwA6BCzMAOYCEJEAGiLrT6k8hAAAAAAMGKEiAAAAAAAtIVZmAFMBCEiALSF6kMAAIDp2/sh38TQuy7vdK9NWrwOABUQIgIAAAAAMHeEigCWSJPkhVlYB4Bh2RFOYo5RzQcATZGJVWSCFQAAttEA8ag79y5aBzBrVCICAAAAADB3EhJWCQqpWARmi0pEAACAmaEaEQCwMioWgdmiEhEAAAAAgDZp9Z4GbWNWtWIRwOQQIgIAAAAAgPpsoEi4CEweISIAAAAAAG3SgI2QDcCIESICAAA0Le6yNpUubAAAAJgtQkSgS7vdBaQ0AAAAAACAESFEBAAAqGvPh3xTcaVh3GUtrwvbqtWJqz4OAAAAWEOaJF+ThXUAAABUsefDfnnohX65M2wfDdtVxI+p+hyrfK0cGxunJpubj4QtAAAAoBwhIoD5yrsQX/XivKGLegADtT/8jt/T4u94m58jOc99QojI5xgAAABK0J0ZGIpz3MWbNBVvY1jkYlsvuAGgCRLerRrgxZ9JTXxGNfEcdfXxNYE+8Z4HAIwIISIwFm2Hite655Y2J3kX7EUX8ctO8oseB2C8zne/89KEVCC2WYXYtiqfUcvus+xzML592XYVqzwG6MKq781lj1v1eTF817v/V2l17HD3lwYAA0GICAzFXe7CTZqKt/Nc7E4qpKnL3bq0KpaFhje626QhX5ULcgBYV9VAIf5MauIzatlzNBF2xM+x7utu4jXVFX/NVV7DKo+Jxc/RxHMu08XXmLq673l+5gCAHhEiAmNRJVTMEweLRUHjFe65pSHfuhe2dXGRAHTPVh6K29zvvDR4yz4H49uXbVex7DFT/ayMv68mvs8mngPHrfJ+FsseF9/O//10XOb+X6WpKpWJx9z9pQHAQDCxCjB1GhheF05A4u06PhAee1bBY7WykTByOz1xL7toiO9T5TEA1nNl+D27JvyeaYA4k+BwMbHKX7x/3J8zXXxWNvH5XPc5mviasSaeY87q/p+JLv7fqnzdJl4HmqcBogSLu8L6Ef6PAAwblYjA1ElYaAPDeHsdEipqsIhmyYk+J/tAt2ZWeSgB4sZXnx22Rmqqn5Xx9xVvSyikwVBV8XPE4ufM+xp5+6ZgyN/Xsv+3KuLn2OO+V2lKZp/XGehV3j40K65MBIARoBIRwOqWVSaOgV40rHuCDgAjtKhG3HwkbGE0mjh2xc+xbFs0fcxc5fmaeEzd7anRAPFQ+P40LLSTR8X78u6Deqb+vgIwC1QiAlidhIdjDhAxfnJCriflQBWrzI4JDI2EEE0HEfFz5n2NvH1l4s/oVT6z6z5mla9R9/saOwkPNUAUebPP5+2zLnU/Y2kAgFkhRAQwb3O7cAAAQLRx/Ksb4MWvocrjm3hMvB1bdvscLQsVr3b/B9JQjPcVgAmgOzMAAHOhF9pzuoi5NXzPF3DhlofuzGjUup8xqzx+jp9rQ6QB4lXh/yHeRr77ws/pTH5OAMaBSkQAADAddFcG+iNB3jph3iqPX/drohkSFpYFhlQqAsAkECICAMZHKk+0+gTVzfFiWyoQqUIEgG4tCxXPd8dwaXMnFYhUIQIYEbozA8AQ0B2rHn5eQGPo0gygcxog3jaj4zgzXAOYACoRAQDjM8eKOhS70l2YSQMAjIOEh3MKEAFgIggRAWAICMUAAACma9kM1wAwAnRnBgAA43JxqDq8iYuxJtCdGQAq2hGOP8caPP7QzRnAiFCJCAAAAABAUyQY1HAQACaESkQAAIAZoxIRQG9WmShtKJOr7Quv44B7HXZdUF0IYKKoRAQAAMNHVQcAYCwY/xDARFGJCGAeqvzVetl92hgHB0A1VHW0impEAL0bSoUhAKAQlYgApkFOPPXks6pVHgOgO/Z3lKoOAJifuudqde8PAKiFEBHA8MQngKueENrHyV+1l/1le9l9pAKRKkSgOav+bgMApqfKuVqsjeMIxyYAKESICGA8yk7oVjnxXOUxANoTX7jxOwoA81b3OBDfPz6uxNsAgFoIEQEMgz2pi08Ai04el50Ixs8DYFj4HQUArGPd40jeueQUj00yrreO7b1MnfsCmB1CRAD9WBYAxqZ4QgdgO37PAQBNio8rdY8zdc9Xx6gsNFz1tjrm8DMGJoQQEfPygDtAScPw1D2pE6s8BgAAABBNnEsOMQSLA74643ozBjiAEmmSfE0W1oHp0wDxjHBgvDhs38SBEgAwbxsbpyabm4+ELQDACTQstMFjvC/vPl3TALHJMLCN5wQwOlQiYl4kPNQAEQAAAADWsayasY9KxbFWE+b9rKrsy7sPgFYQImIernQHFWkxqUCkChEAAADAMssCQzHEUFHF3ZzrGGswCaBRhIhAkXPcAVaa2ufWpQEAAABAERsUVgke4eX9rKrsy7sPgFYQImLaZMxDade4g4o0AAAAAOhLn4EX1YQA1kSICBS5yx1gpakDbl2aFVcrAgAAAJiWul2QqYwDMFGEiJg2xjwEAAAAAABYW5okX5OFdWBapBuzIEQEAKCSjY1Tk83NR8IWAAAAcByViAAAAAAAAABKUYmIaaH6EACAlVGJCAAN4toEwMRQiQhgfbe6EyRpQFd2uPebNAAAAABAJ9IkOZNKRKBN+/7MLw98jV9O0a3he7wgfI+Xh+3rJvw9o187wnvsGO8xoEkbG09INjc/H7YAAI25OJy7/PKn/DJ9mV8CwIhQiQgMgQSNGjaKeHvoJDzUABHogoSHBIgAAGDM7nTn+9IAYCSoRASGIK5WjLdF3r4xoXIMAAaPSkQA6JAGiOdyfgxgHAgRgbGoEjQOGSEiAIwCQSIAtGxnOC8+ynkxgHGhOzMwFhIWLgsMJVjUcHFo6H6KJkgYrYE0AAAAAKAzhIjAEKwS/lUJFQEAAAD043x3fi8tJhWIVCECGCFCRGBK8oLFIVcnAnVR0QoAAAAAvSBEBIagy6rCNkPFC93zSgMAAADGpulhU25z5/fSAGAiCBGBqasSUFKtCAAAAGwXh4oXu3VpeS53+6UBwIQRIgJzU7XqcZVg8Rb3vNIAAACAsWHYFAAolSbJmVlYB4DjNEDUwDHeBgBM1sbGE5LNzc+HLQDACbQi8SbOjQHMB5WIAPJVrVgEAAAAAACTRyUigNXF1Yn7w/Y9hI8AMGZUIgIAKtsZrgGOcg0ATB2ViJgfZhAGAAAAAACohRARwOriLs9SgTj1KsR4lj4AAABgzqQCkSpEYBYIETE/zCAMAAAAIMYfiwGgFCEiANRx7Gt8A4AJk/EQZVxEAMAIrROGEqQCKEGICGBcOLEBAABAG8b8x+Kyc2R7W9n9YvF96zwWwCQRIgIAAAAAMBVVw9C8UHDMQSqA1qVJcmYW1gEAAIAF6c4s3ZoBABOlASKhIYCKqEQEAAAAAGBuqDoEUBMhIgAAAAAAAIBShIgAAAAAAAAAShEiol27/sw3td+tSxPnuaU0K28fAADonIyHKOMiAsDkMeswAFRCiAgAAAAAAACgFLMzAwAAIBczNAMAAEBRiQgAAAAAAACgFCEixsOOpyj2uXVpAAAAAAAAaBUhIoaFQY0BAAAAdIlrEACohBAR43HP1/imDrh1aTEqFAEAAAAAABpFiIhhOfY1vgEAgN7JpCoyuQoATFpX1yDZd/gGACNFiIjpaatCkQpHAAAAAFXd6a4dpAHARBAiYr4IBQEAAIB5W2c8xJ3ucdKqSn/DNwAYKUJEzEdRhWKsKFys+ngAmJK6F0gAAMA71107SAOAiSBExHxVDQX3uotnaQAAAACmZZ3xEI+6x0nLQ68nABNEiAjEqDgEgOPKLpAAAIB34Z/5VoTKfgATQIgILHPQXTxLAwAAADBdTQZ9FCYAmKA0Sc7MwjoAAABwgo2NJySbm58PWwAwURogUoEPALnSJHkBISIAAAAKbWx8WbK5+XdhCwBmYO99fnnwTL8EANCdGQAANOBWd7ElTWVf51uefe5+0gAAGJsr3fFLGgDMECEigHac406upAGYpjpBYBwwAgAwdFKBqFWI17pjmDQAmDlCRADdofoImK4L3IWWNJX+iW95Drj7SQMAYGyucccvaQAwQ4yJCKB5F4eg8KboBEsDxKLwYFe4/QgnZgAwJIyJCAAAACoRAXQnr/qoanXiDncfaQAAAAAAoHNUIgLo17LqRKUB4rEBVSnuDK/pKJWTAKaPakQAAIB5oxIRQL/yqhPzSHg4pAARAAAAAIAZIUQEgFVJBSJViAAAAOiT9I7RHjJF6wDQAEJEAAAAAAAUY3EDQC5CRAAYM/7CDAAAMB955362d0zROueMABpAiAgAAAAAgJrbWNxxwEjgCKAAISKA9lzoTj6koVm73c9UmrB/YQYAAMC0rXruZx9HSAhgRYSIAAAAWGpz8++SjY0vC1sAgMmIg0ndJmwEEEmT5AVZWAcAAAAKSYgoYSIAYAY0QLQBI4BZoxIRQDsudScd0gAAAACMT1yhCGD2CBEBAAAAAPOz6z7fAACVECICaJZOpnLDmb7BY0wZAAAAAMCIESICKHbtfb6pG926tBhdl/MRHAIAAAzXkTN9AwBUQogIYLs6geDn3f2kqfvc+pVueQsnYydgTBkAAAAAwIgxOzOA7TRArNIVOb6vhIjiTPPYK8O+ayYaoO0N399BAkIA88AMzQAAAPNEJSKA7dYZy1DCQxsgThXdlAEAAFBF9hHfAGACqEQEUJ9MnCLm2m1ZA0S6JwOYISoRAUzSjnB+d6zh8zsNENPn+SUAjBiViABQF+MbAgAAIHbrfb5ZEh4SIAKYCEJEDMfN7oArDcMnFYhMntKt3e53Q1qe891+aQAAAFiNVCA2XYUIABNDiIjxki4H2u0A3ZGuzNqdGQAAAIB3wZm+AcBEMSYixqutcUvgFY37N/fxEAFg5hgTEQAAYJ4IEQHkkxDxfwvrMlvzpSE8XHXmZgDAZBAkAgAAzA/dmQHkm+LEIRKMaoUlAAAAsIrz3PmkNACYGUJEAMWk6lArD+36mOx1J3jSAAAAgFVc7s4lpQHAzHUbIjIRBjAO0nVZ2tR+X6W6cooVlgAAAFifvV4tqza8w51PSgOAmekmRCQ8BNCXg+4ETxoAAACwiuvcuaQ0AJi5didWiYNDZtEFho8JVAAASzCxCgAAwPx0U4ko4SEBIgAAAAAAADBK7VYiAhgPKhABADVQjQgAADAvzM4MAFNz4X2+AQAAAADQEEJEYO50JmapQJxqFeJO9/1J60OfXxsAAAAAgIYQIgJzpMEhpumWM30DAAAAAKAhaZI8nzERgbm59H6/vOEFfjl2O8L3c2wi3w8AjMDGxpcnm5ufC1sAgE6sc97LOTOANVGJCMzN1AJEAAAAANtJYKihIQA0hBARGIv97iRA2iokONTwcIrkr6lD+YvqTvdzlqbibQAAAGBV65z3DumcGcAoESICQ1cWHl7o9kurQyoQ61Qh2r9i8hdNAEAgXZmlSzMAjMpedy4rbSyKzr+XnZcTGAJoASEiMBb3uJMAaWXiisPL3bq0dYJDVLPb/bykHXU/Z2kq3gYAAACaVOfcvey+dZ4HwCwRIgJDVxYe3uL2S2tC0UmD/SvmnP+iSbdkAACA8TvozmWljUXR+XcT5+WEhgBqYnZmoGl6INaDerw9VGN5nX3RANFWFUrloTjMzwzAPDFDM4DR4tyXnwGA2qhEBIZsnzuwS+uCnDxwAlGMbskAAACYEs7/AdREiIhxkL+S6V/Khi4+GOcdnOPvZ5dbl4bhs8GuVCBShQgAADA+eefoAIBShIjAkB1wJzbS0K8uK0IBAAAAABggxkQEhmxPCK4OdRgkymzO4rrwNa8M29fMLMzU0FBCXLsOANiGcREBAADmgUpEAPVde79vee5z+6VNCRWhAAAAAICZoxIRwImWzdSmAeIV4fa7w/bL3bYGiGcSugHAHFCJCGD2rg7nv1eF89/sGr9Mr/RLAJgIKhEB1CfhoQaIMQkP8wJE6RatXaNjY5o4BwAAAACAGaISEcO3rCoO41A2tiL/xwAwWlQiAgAAzAMhIoZvCgHTrvA9HCEkAwBMCyEiAADAPNCdGcMn4SEVagAwDTvv9w0AgDHa645h0gBghggRgS5IBSJViACACZIqRKlGBAAAwLTRnRnDc2f4y965hG6di7uOM1YhAKACujQDAABMH5WIAHxYqIEhAAAAAABAhEpEAFQcAgDWQiUigFHSMXqPhnPg3WH7sNs+L6zfwfkxACgqEYEuXelORqQNTZXJa6hWBAAAAKaLyc8ALEGICMzNHndiIE3scktpAAAAwNxIBaJWIQqpQJQmpAJxDFWIBH8AOtRviGgrm6hywtRpBeI1HZ2M2LBQ7HPr0lZVpVoRAAAAwDjFoSoARKhEBNp09f2+VbVumF7l8YfciYE0ccQtpY3Ruj8rAEBjZDxEGRcRANCivKpDG/xRlQigZf2GiLayiSonTJ1UILZRhVgUptmwUBxw69IAAAAAAABqYnZmYAw0JLRBexwcEsIDAHrEDM0ARivvXHuqtFKRbssAVkB3ZqAtdbsyr4oqXgAAAAAA0LJhhIhF3TExDvvd/500tCcvKCQ8BID29DmuVPy1q76Wsvvl3Rbvs9vxbVU18RwA0LQL3WeRNJF37Tml8+pln71MngJgDVQiAk2xlYe6vIoDNADMjr2Aiy/mim6z62Xi+5U9ruy2upr4OvZ+Reui6m0xe1vRulj1NmvV2wAMF4UtALDUMEJEKqrG7R73fyfN2ucOwNIAABBtBCtlz2lvi+8Xb1t627JKDfscdr0J8dde9lpU2f3ybov32e34Nqvs+636HE1o+ue+TNHXK3sd8W12u2g9VnYbgGpucZ9F0sTUrz3b/uwFMGtMrIL16F/r4gOxBohzmA2YqsPp2Bv+Lw/yfwmsTMOO+AIm3l90P2FvK3tc1dvK7ifK7msV3a/sMVNU8v12OrlK1z/3oq9X9jri2+x20Xqs7DliZbcBmBc+DwC0gO7MaIeEh0UBIlWKGBI5wdKTLADtkYuYpi9kyp7T3hbfL962ym6z7P2qPmYqhvL9dv06ir5e2euIb7PbRevCHpvi26yyY5i9Lb5f2W1F4vtVfRwAAJgMKhHRvalUKV4fvo/LRv59NOWc8PO4a2Q/D70AKrpAA+akzu+DvS+/Rwg6rUScsqq/U2X3K/sdXeW2Os8BAAAmiUpEdK+sShHomlzwcNEDLCchgQYFdaz6OGDOqh6byu5nb4vvV3Zbkfh+ZY+zv/dF66LqbbGy2wAAQGsIEYFVUIV4IqlAHFsVYl3nu/93acBQ2Avp+KI63rbsbXY9LxSwt1v2vnmPAzBOq/xuV73fqoo+hwAAQKcIETE8+91JojQAmLKqF8Xx/ao+rmmrhgRthwsAhsf+3heti6q3xext9jOx7PMxvq3svgAAIBdjImJ4NEC8Jzpx7GvmXDv78twqEG8M3+8lFb7fXeG+R2byswHWpRevciFs10XV2+pY9XFATYyLiE5V/bysc5tVdhsAADOTJskeQkSMw94/98uDz/fLrlwdvu5V7uteH9Yv6/g19OXG8P1eYr7fa8O+K6Kfwa6w/8hIfzY7w+s/2vDrvzg8700zec/MlX3/xO+lZduiyn3W1cZzAjk2Nv5esrn538MW0KOqn3v2fmWfx2XPV/VrAQAwYoSIGLf94YTtnhZO2OYWGFpXhu/9mpzvPQ4Rzwnbd4Xte8P2S0b2c1v35P/y8Pjr3ONt+EqIOGxNXRDa+8aPW7YNTAwhIkat7DO67PO8jc/6Jp4DAIAGMSYigHokPIyrEKdATtDbOEmX8JAAsTlyQaUXVXY9VnabKLq97HHxbXbbvn/i99KybQDAcJR9Rq9629TFx8cu7HBfTxoAoFNUImIa9CTiWDh5i6vj6rg5PPaimZ4ItqGsshGow4Z2dj2Wd1uVx9Z5zrL7AjNGJSIQKTv+lN1WZGjHnz5eT3zuv46h/TwBYMCoRMR8nO9OEKRhddI1V7vnChkHUcdCBLogJ/h6km/XY2W3iaLbyx4X31Z2XwAAmiRBl4ZdZareL7bq40Qfx0MJD5sIEAEAtVCJiO40+RfDVWiAeJv5+nbSFDHncRCL7A4/k8PuZxKP7zf2yVTQL71YqXLhUfW+dZ4TQCuoRARaUHR8i/fb7bLbYmW3AQAQUImI+ZDw0AaIqC8e30/CQwJE1CEXKXqhEotvK7svgMGSAFGCRAANknCvSsBX9X7xMbbq4wAAs0YlIoBiVBqiCXqRIhcndj0W31Z2XwCDRjUiMHAcYwEAK+iuEpEZtABguuRiRC9IRLyt5GKl6IIlvq3svgAAYHUcYwEAK+i3OzPBIjBMF7rfS2l0V0YTuFABAGBeiv6YODYyfrqOoQ4A6DBEZAYt1HW7O2BLq2KsgbSGdV250n0taXnimZeBPPaiwK7HQSHBIQAA82HPCcpUvZ+oc9+m7HdfTxoAIFe/lYhFwSIVikB38sLDW9zvpTRA9HESDwAAxsv+MbHsPGII5xhlr+Eq9z1IAwAsDHNiFQ0QqVzEVF0f3uOXDeA9rgGinXUZsPTEmspCABUxsQqALWXnEfa2qvdrmn3usuvQm8NtF7XwGgBgJLqvRKxSZVhUoQgMlX1f73ZLabFb3T5pTTrPPZ80da1bl1Ykr+pQwkMCxPmQE2U9WRbxtqW3yUl1GyftACZLAkQJEgGg9DxilXOM+Nxl2fYy8vUfdctl16gAgJ67MwNzkBceHgitbXmhYROKgtIuVfmDBOqre+INAADQhKbDxn3ufEaanNfEf3hX8fmkFLKc4pZ550JSgUgVIoCZG2Z3ZmBKNEC8yC8WJyc6mUrRuIN6knNHuP2csH1X2NaTnWUVu211VdYA8XDDz1tH1Z8B6tGT5ron6gAQoUszgF5JgChk8VK/unVureeyR/xi2/nksnMhnfjxdZwrAZgfQkSgTRogXlDxJGNXuP8+v1g7RAQAoCeEiAAGxYaD6/xBXEPEw34xiDHOAaAjdGcGhkjCQw0QhYSHGiAKCQ8JEAEAAID6JDzUAFH+WK9/sK9CKhCpQgQwU1QiYj37wwH3Hg6kAADgOCoRAYxC3ONHaO+gI1zjAIBFJSLQhrzJVAAAAAAMS9zjBwBQiEpEtCOeGGRObg7f+w7Xqo6FCADABFGNCAAAMB1UIgJtIUAEAAAAxkm6NGu3ZgDAApWIWF/dmYIvDPe/pUbINvTZiOvOwgwAwAxQiQigMV1fDzAuIgCcgEpEYB2MfXjcHvdzkAYAAACMnYaHXVYj7nRfS1oV8X3rPBYAVkSIiPXJXwPr/EVQKhDzqhBlHEUdSzFW92u06U73GqVZUoFIFSIAAADQjiFdDwDATNGdGcNRNBnL0CZp0QDxXE5iAAAoQ3dmAIOn1XtHJ3Jub7+fqX1vAHpHJSKGQ0LCoc/mTICYj67MAAAAAABMGpWIGK8+KhQJEfNpgHiInwsAYDuqEQGMFue4ALANlYhAVTKBylG3JEA8TisQ5cSKkysAAABgeJh0BUBDCBExXkXdn893B0hpTWD25frudj8vaQAAAMCY6R/K9Q/nWpnYFcI/AANDiAhUNacZmC91JyvSVLx9vVvf4drH3Pr/7drt5rY88eMBAAAAbNdWaCgTqzC5CoAGECJiGiTQkiZucwdIabGL3e3SikgwJk3I2IfS5hQcNuXl7uclDQAAABiDZeGdViR2PXwP4R+AgWFiFUyDBojHSg6yGiDeZO6j1XE3uH0aIF7m1plApdi+8LM5wM8GALAcE6sAGDwNEMsCuxvDfX7OL7Z0HSwCQI+oRMQ0SHhYFiAKCQ9tgBiT8FCakPCQAPG4JseZBAAAAIaEij8AqIRKRADLaYCY100cAIAlqEYEMDhVejKV0UlWqEQEMCPDqkS049oBdfH+aUY8dqScIB10SwJEAAAATNEud74rTe1269IAANvQnRmAt2ziGQAAAGAqqgyHVEYnWpE/uNsGABNGd2YAXt7EMwAANIDuzABGQasPD9c4H14WHNLdGcCEECICQ9BngHdO+Np3cYIDAGgHISKAUVglRIzFoSIhIoAJSZPkecMMEXcc8stje/wSGKJ13qfXh8de5h57cVi/qcH3++XhOa9zz2nX1bVh311+kdzV4NcGAMDY2Hhisrn52bAFADVVPefeHe53OLof15YA0AjGRMRw3eoO9tIsOTHQk4OhkpMUPVGpSsLDJgPEOiQ8JEAEAADAVJRdM+x0+6WJvW4pDQBQST+ViPwlCFVogHiBeZ8U/XVxSKq8v28O97mI3wEAwDxQjQigM2XXDBogHnW3aYB4MNxvDNcaANCj4YSI8T6CRkyZhog/4FrRe35X2D7itpf9ztj7ij1h+5C5f5PsyRcAABUQIgIYPEJEACjVT3dmCT1sGALMxZ3uxESaVCBKgAgAAABgGDQ8LOoKDQAzN9yJVYAp0crDXX6RnEuIDgCYFyoRAYwC1YgAUIiJVYC2SHCo4aGS8JAAEQAAABgmCQ+lyfBAOkQQAGCBEBHognRfZhIVAAAAAAAwUoSIQBtk3EPpukxwCAAAAIyPTFC4wy11BmcAACEiGrbPHWSlAQAAGDIeooyLCACDstNdu0grI0EiYSIAtBgi7nAfstKANgz1/XW3e03SGPsQAAAAGLeD7nxeGgBggUpENOuAO8hKy3PeId8wTfyFFgAAAGNz1F27SCtDmAgAC+2FiMfch6w0oMyFh3xT8XaRob2/bnWvWdrL3WuSBgAAAGAa+GM5ACxQiYju3LHHtynR7svgL7QAAAAAAExYmiTPy8I60Bwdr7DJakGtULxlAEFVHBxSfQgAwFIysYpMsAIAo6OTRxYN3QQAM0AlIrAOui8fV2VmOwAAAKCuIU2qKGGibeeEBgAzQCUigPXEweGygakBALNGNSKA2tro5SR2hec9UuN5tSJR7QzLuzgHBjB9hIiYhiF1dZ4bDREJDwEAFRAiAhiMVUJEAJgxujNjui52JwXS2nCze15pc2Nnz9buyxIeEiACAABgbCQ8bCJA1K7NADBxhIiYBqlArFqFuE64eL17nLS5iUPTOQaoAAAAQBnCRAATR4iIabGDLt+0x7dVLAsLL3LPK21ubFh7vWtagXi3+1lJAwAAAMZCujNrl+Z1yIzNzNoMYAYYExHTss6gy1qdKMGjBoiXheeJt7GdBoh2pursHX6ZfrdfAgDgMCYigMHQAHGHXySHOdcHgDJUImJaJDxsYtY2CQsJDE+k4yDGJDy0AWKRq91jpQEAAAB9a2pMxCYVnW8DwAC0V4nY1jT8ALqlJzE/4trP+dWVJ1LRAPEqPhcAYM6oRgTQinWuQYcyU7Oee8v5tl0HgAEYfiWiHeMOQHviv3ramZiVnMCscxIj4SEBIgAAAJoy1OvF+Ny6qnXPtwGgRe2FiE11KwXm4HJ3giFtiPREhvAPAAAAQ7bONahUIMrYiLtbOCcvChSXBY1FgWL8uGXPAwANGW4lov5FiTASaN6l7ndLmtCKw/gkxc7EDAAAAAzRUK8X8wLAVcM+QkIAAzHMEJHuy5gLrUC8zp1gSAMAAADQD52duelqxLxAURTtXyZ+3KrPAwA1tTexyjo0RKQCEWOgfxWseuC2k4toF+auAsS94esd5HcLANAfJlYBMFgaIGqgCADYMsxKRLowYy6aqkDc7052pAkJCjUsFHvcujQAAAAA5dqqRgSACRj+7MzA0BV1H4jDPGGrEJfJmx15XVKBSBUiAKBnUoUo1YgA0IuqYwzqH+PzzusBYIaGHSLq5CrAlNUZKNne167fs8c3EQeFh9y6NAAAAADLSTUi3ZkB4ATDHBNRMTYi1LXhvXBFeC9oeDaWAYRtBWL82pdtW/a2sf0MAAAwGBcRQK92hXPpIzXOpbUakZ49AGZq2JWIjI2IOVSjSghYNQi0963zOAAAAGAsurwGkDBRA0UAQCnGRMQ4SAWiViGKIQdoN7uTEGkqHgdx2Wsf8vcGAAAATMHR0OrYERoAzBQhIoZtTNWobUyEAgAAAMxNF9cA+jWkO3OdLs3WfnfuLw0AZmLYYyJifM4JB9G7woH44rB9kzkw5+2bAg0Qb5nY91XH7vAzYCBqAMASjIkIYLT2hXPeU/xii050CAATRSUisK7r3UmENAkP5xwgAgBQgwSIEiQCQK/kj+D6h/C6JDS0wSGViQAmLk2Sr6YSEVjH9R/xy8ue55cAAKCSjY2dyeZm3UHJAMzGjnCefazF8+zd4WscbuBr7A/PdQ/XBQCmiRARWMfN4UThIk4UFnaGn8dRfh4AgOUIEQGcwAaHXYSIAIDK6M6MYTrfnTBIW4WcbOgJBwAAAIBxkvCQABEABoMQEeNy4Ud864NUHWrloaAK8TipQJQmFYhUIQIAAGBVXQeH0p1ZuzQDAEoRIqJdq1YF3uZOHKRVZcPFpk884vAQAAAAAABgZhgTEe3qahwTDRBvMV/nvLDvjjW/NhWHAAC0gjERAQyCViKe4hfJIc77ASAPlYhoV1fdESQ8tAFiUwgQAQBojQSIEiQCAABg+AgRMV1SgZhXhRiPq3ipW5embnXr0lAPE9oAAABgyIrOVw+7awZpUoEoba+7jzQAwDaEiJieJsMsqUCkChEAAACYBumyLBMCVkGQCADbjGNMRA2EuugWi/Hj/dIsfp4AgBYxLiKATmmAeHTJua0GiAc5BwYARSUipqercRjnrMlqTwCA1+Vnq/1aVb9ulfsV3afKY1WV+9r7FK0DQB4JD5cFiELCQwJEANhmHCEioRDQD70Q4/cPAJpVN+zS+9vH7XJLacLut+tW0X7L3qfs/lXuV2W/Xebd16pyH8veX9fz9lVdt4ruY9cBAAAmhkpEAPUR7AOYinVCH/vYuuuW7o8/W4vuX0fRc9ivFX/dIlXuV3Sfksdufvj9ycYLzw5bjr1v3ddv15tW9FqK2PsXPXbZffL2xarcB5i6Nn4PmFwFAE4wjjERgam7NpygXNHShQ8AIJ9edGrwZLfj21R8oRrft8q6VXd/HU08RwcKx0Uc0uuv+1rs/eusq7qPk/Uide8PDFHZe7fO+1oruI8suW9RgLgjLA/wOwRgfvoJETl5AZLkxvB7cIn7PRhiiLgnvKZD/J4CGICic4e8/XZf0XqRKo+t8jyoZVaTqyx7/xTdXuU9WHSfuus2ZCm6D9A1ff+pVd+HVUNEFYeJGiLKLM/iHn4fAMzH+Lozy8HDHkDibWCMJDzsM0C82P0OSQOAISk6xtfdn6fovnJRqhemdt0q2g9Usez9U3S73V90nyLrPDaP/f2psg40oYn3rpDwsGqAKHSCFW1SgUgVIoCZGn53Zj350APGsm1gDGwV4hBogHgTv1cAWhAHCfLZUnQ8V3n3UXX356lzX7RuVpWIU2B/f5pat4r2Y9rG+P++P7xmqhEBzMRwKxHlIKIHEksOKvbAEm8DQ3Wrez9LW2anu4+0puxzzyUtXhc6s6eEhxogAkAee1wuOkZbVe6zTNExvu7+PHXuC2A7+/tTZb2Kos8Mu79oHahKz30BACsZbiWinhTUOfkAhigODi9Y8p7WAPGoud86vw8aGkq3C7su6o4JA2C64otx+byxnz3rrANLUImIws+MZZ8xSh+Xt7/ouTE/eu4rHze8HwCgNmZnBpqSF/4JDRGXhYdl4pPfKifDBITAPNS9OC66v+5XcnuV57b3qftaAIMgESuJP3eWfZats4522YBPtPUzl//TXWH9MP+vAFDH+CZWAcYkDhDlpEVPRuuQk6gqJ1Jy8qUnYACmq8pnib1P2f31Nv2csZ83dr1I3fsDQJPizx3dtvvtepfKPnvRnz7eCwAwEVQiAm3KCxHFspOXqveLUX0IjIv9Xa/yex9fjObdN+8+Zc9d5esCHaASEYNnPy+LPo/z7sPn6zDtDv8/VCMCQGVUIgJtkRmY5VrIdmOWk8iiE0k50YxPSOuS8JAAERi2Kr/r9j559y/7LFH2PmX3L7sNALA6/XzN+xzHcGiYCABYihARGCIu6oHxiC8O7XZ8W8z+rlf5vW/qPgCA+uznq67bfSLejhUdI+w6umErEPe4n700AEApQkSgaVKBKO0Sd2IiraplJ50AhqXuBZ/ev8rvur1PlfsDAIaLz/HhkiCR7swAUBkhItAEDQ4BTM+ysDC+OLTb8W0AgHkrOkbYdbSjbALCQ+5nLw0AUIqJVYB1xMFhncpDAMOjYaFcyMXBoV7c2fsAaBSTqwBozbIJCPeG2w9yfAeAIlQiYnqWVQ21oW7XZQDdKPo8sPuL7qOoDgEATEXR8a9ovStdfM2qExBqmAgAOAEhIrCq690JxjG3JDwExqHKBYoNDIvCw6L9AABMSXzcrHIcHTNbgbjPfZ/SAADb0J0ZWJWEiOIywgRgcPQix4Z9efsADArdmYEBiY+bcYAY7+/i+LrO11rWndnSAPFAuG+8DQAzRSUiUJeEh9IkPCRABLohFw164WDXRdltllxwdHGBAwBAXWXHr77Ex806x9G2vx99/ra+ThweAgAWCBExHW2dRKib3XNLA9CdVX+v61zoAACA6uJjrG4XHbPt/qL1quKvXUfVMRHzSKh4ilvur/l6AWBiCBGBMlp1aFGBCNRT5SLB3ifv/vaiIb6AKLsNAIAxmNrxq+3vR5+/7tfZ484vpFUhwSHdlwFgG8ZEBGJXhxOLq9xJA+MeAuvTQFBO8u26yAsL4/sAmBXGRQRmpsq5QVM0QDy04nMWVSLewzkLgHmgEhEoQ9UhUI+c+OvJv67Lyf+yCwB7nyr3BwAA82HPL2SCFJ0kpS4JD1cNEAEAVCIC21weTkiu4+QCWNATdgn11lkHgIqoRARmRM8V9vrFtu7DRecUdWZZzrM7PP4w5ycAUNe4KxHlYKIHFABA/+TkXkNDuw4AALAqe06xzgQploaJy9hrTq4/Acwc3ZkB67TQgLnTk2R70l5lHQAArGaOAZWeQ+RNYtLW+QUViACwsjRJnkt3ZkBd/Rd+edVX+yUwBTvC+/pYzvs6vk23Vd5jAKBFGxunJZubD4ctYEbKjtdzsDN8/0d7/P6r/h/UObcCgAkZbyWifDjrBzSwLgkPpUl4SICIqavy+Sknvpz8AgDQHY691e1y5zHSVrXbPVZaE6qcV1W5DwCMAN2ZMV8aHA7F5e61SAPqKjsx1f1FFyXxBQsXMAB6JlWIUo0IYGakArHPKkRR9Tyo7H56G8EhgAkab4ioH9p8MGMVcXhIBSLGqOjkdNlJa9mJLwAAwNAdcecx0pYpOic67B4rrQlVzqs49wIwEeMbE1EPAvIhbNeBOjREHEJweHN4LRfxPp61ZZ9neZ99Kn4Mn40ARo5xEQE0ouycaU+4bYdfJAc7Pm/ifA3ACI27O7N84PKhi6ps9+UhVB7e6l6LNKCInFzGJ79W0Wcgn40AAIzPsuM+jqs6JmLROVEfP2f+fwFMwLhCRJmx6xS35OIYddjwcIikApEqxHnTE8qyzzZ7EmzXAQAAcKJlod3HXDvkzqekAlHaXndfaftCa9s653MEkgB6wsQqmKa84HBI4x5qBeIFA3k96I6e9FU5+SMsBABgPjjuV1d1TMQiffys+f8FMAHjGxMRWOa8EMzsc20ooaG6M7y2o35BiDhRGg7qiaLdjoNDTiYB4ASMiQigUdr1uUrwqFWIBzhHA4AYlYiYrqEEiBIcanioJDwkQJyeOtWF2gAAJ5AAUYJEAAAADAeViEBb7g1hkhZSnEtgNBlFlYaKcBAA1kY1IoDe2GpEKhMBYAuViJiWKpVgXZPwkABxPOx7qGi9CNWFAAAAzco7B6tyXta0riZcAYABoxIR0xCfRBDkYFX6XpL3UNE6AKB1VCICWCgLC6uel9UZE7GIDRCpSgQwU1QiYlrkRGIIIU/eOIgYB/seKloHAABAN8rOwcoCxqYRHAIAlYhAoxgHcXyoNgSAQaISEZigJs+1OG8DgM5RiQi0gXEQh0FOLvUE066LeBsAAADdOt+di0lbhYSHywJEPd/bHRoAYC2EiBi3IQVBt7rXcdgtX0J42Ls67wt7AlrlZBQA0AmpQpRqRAATUnSuxaQlADAKhIjAOiQ4lIZhsieq8UlrvA0AAID22T/23ubOxaS1Rc/3DocGAFgLYyJiPC4PJxvXDeAEIA4OL+CkpDN60hkHgEX7AQCjxbiIwAT1dc6m3ZkJEwFgZVQiYtiGPsuxhIcEiO2zf7HOU3YbAAAAhkOrA9tWdP7I+IgAsLLmKxH1g5pqIDRBA8ShTFKiFYgEh+2znyXLPlf43AGASaISEcA2dc75iu5rA8RTwvIQ55AAUAWViBg2ZjmGkJO/spPFZbcDAABgXvT8UMJEDRQF3ZkBYGWMiYhhG9I4iDeH13IRJx4rs38Rjv86XHYbAGCWqEQEsDbOKwGgMeOvRJSDgh4YMC0aIPbtXvc6pGF1/J4CAFYgAaIEiQCwMgkPywLEve4c1TYAQCG6M2NYrnYHbmlWH1WIEmDGIaZUIFKFWF1ecGhP4uITurLbAAAAgC4RKgLACcYdImpAQdgwbnmBnZDwcAjdmF/iXoM0VLMsPAQAAACG4qA7R9UmCA4BoBCViBiWq9zBW1qfpBJSek4NIcAcM4JDAAAAjJWEijvdcj+hIgCo8YaIVCFOhwR2DHc0TrbqUNcJDwEAANC3ne68VFodtiIRAHCC8YWINrTAuOWNf9g3mYH5WW7ZdzVkH6r+bvE7CAAAUN8Qz3271sd55C739aSt4h53TfCoW+6b+f8bAATjrUSk2mk6htCF+VZ3YiAN+YpO+OzvIb+TAAAA2xUFWNnvhPYs39C8o+68VFpTCBIBIEmT5LlZWB8+LUdv8mCAbulfX4dS6XdveD2H/SK5gPfWNnFwSEgIAOjBxsZpyebmw2ELGBENEI9E51ASIC78gF+kH/NLVKfnqXJ+atfboAHiAc6FAcwbISK6EXfd6DtEvDO8Hh2Lcc6zL5eddLV9QgYAQAWEiJg8+4f288L6HW597tc/Vc9Ty+5XFOQCAGobV3fmpkvS0b547JchdF22JDyca4AoJ1t6wlVETsQIEAEAADAE9vzVnqdyzgoAnRhXJSLGZ2jdl7UC8dyJn2TYkyu7rmx4yAkXAGDgqEQEJmRPOA895M5BbdWlyDtvtZbdXmR3eNxhznsBYB3jnVgFwzekAPF691qkTZ2cWNmAcBkCRAAAAIyFnLtWOX8tOieWMFEDRQBAbVQionka1h31i8GEiOKyiYdmq/51FgCAAaMSERi5snPUVW8rU/Q4KhIBYC2EiGhOXOk3hMDu/PCabuNEAQCAsSJEBEau6xARANAKujNjPXndhCU8nHrF3xDJSZaeaAEAMCESIEqQCGCkJAQsCgJXvW0VMh6jjskIAKgtTZKvohIRq7v+L/3ysuf65dDsCK/v2EBfX1Vl34fepsb+vQIAkGNj40nJ5uZDYQsAVrDHnDcf4pwZAOqiEhGrkfBQmoSHQw0Qp0yCw7zwkAARAAAAyGeDw73uXFoaAKAyKhFRj1YeKioQ21X0fUzl+wMAoCIqEQE0SgPEHX6x5QDn1wBQhEpErIYKxH5RdQgAAABsl9dbp8hBdy4tDQBQGSEiqhv6+IfWFEI2qg0BAACAdknloTaxr2IICQAzRIiI6ajzl8ehmsL3AAAAAPRB/vh+ilvuXON8+phrQx0rkWsFAD0jREQ1Y6pCHIO8E4B4ewrVlAAANETGQ5RxEQGgNXY8RKlIlMYELACwhRARxa52B0tpQ3Cvex3ShM4MHZtK6EZwCADA6qQCSauQ7DqAaSmqyjvqzqVlspRdK/7uD3msRIoMAPSM2Zlxojg4vKrHA5WGhfv8InmJey1TqIrUEx5OAgAAVWgQJhfHVa3yGLXssXEwp/ezj8u7T97zlt1PhfsvZmj+i/cv1nOfI/4aec8TBwtHosfE7G362GWPyVP3/gDKlZ1P29/VKbHf81S/RwCDNqxKxCvdB6E09COuPJTwsM8A0ZLwUJoY48zQRX8pBQCMmwRDGg7Z9TJ1HpN3+7LH5Cl7HnubXVf2PvFtq1rlufLun/c8EtJpUGfXq5CLcr0wr/oa8x5jH2tvj+Xdz97f3l6VfTwwZRoe6jm2Pd+WYE2qEXfzuwAATeo+RLzPfZBLE7e6pTQMy1DCwzFUHOaFg3Zf3u1CTnqoQgSA8Vkl1FHLHlt2e14YZu+ft573mKoBU95jLb09vp/dtrfH+yx7H70tb5+qus+yt0u4YJsoe3zeY0XZY/LUvX8s7/9O9+XdBmB67DWE/TwCgI60351ZQ8ILwgecBohnuu34NvRHKxCHUnkoxhIiChsI2n15twMAuqcBW1GIo7cruV/Zvng9lnc/lXd/UfW5VdH9yx6rQdNILzwX3Zk3HwpbI1bl/zem/3cyc6yQx8bBof1/tf/XVR9rH1NmldePeevrnLjqexoAUEn3lYgSHkoTEh62FSDKgUoPVhgXCQ+lDa3bct57Sk6E4pMhuy/vdgDAeiTA0BBjmbz72n15t5eR0GTV4GTZY+s+t71/0XpMLqS5mB6nvP873Zd32zokeNHwRdftPivvdyhvX9HjgaZw/QcArWuvEvHG8AF+SYMnNHXoAYQA50Rx1eGQKv70tYihVSAWvad4rwFAMzR0KArA4lBC7xfvV3J73nPafcu+JgZnMtWIQ6ZhnwSTcfAXh5X6OyTjzwm5PW+ffc4yVe+HaWjyPJpzcgBo3bAmVmmCHDykycGDA8jwadVhrO8AUd9HFu8pAGiOhAwaNNh1S/fHt0vgVzX0y7uv3Zd3OzB3EuBpiKfrdp+V9zuUt08fb3+fJTDU0NCuq7x9mKa8c++68s7VZWIVJlcBgMa0U4l4bfigviL6EF+FHkyqhDf2wEPYk29IYx/qa9npWp+hYV5YWPS+q/N+BIC50oBAQgQb/ol4n92OQ4e8x2L2qEQcOfv7rgGhhIt2XcUBor2t6HkwTHoOLef9Iv6/aus6TgPEw7w3AKAJ465ELPrL0t6wxDj0ESDKiYo9WYnJyQtBIQBUJxf0cei3jIaCsswLCHV/0e0Axsf+PkuQpGGSXVd5+yQwjMNFZT+H9H72/vZ2u47+2fPuZefpdUh4eIpb7nHPpw0AsLL2Z2duE39ZqmeIMzB3LT4hISgEgHzxxXUc4hVdfBP2oWVUIs6cBoJxuCj0c0k+h/R+Su5vb1/2GYf+6Pl6U+fpcXCoY3Wqg/zfA0BV7YaIZQd5dEfHHDzqF4MJEbsKNe2JSNMnJQAwNvYiOrbsApsLcAwAISIatcpnnb0d47M3+j8lRASAypoPEW1IQ4g4DEOafVloeKi6DBEBYK7qXCgXXRhz4YwBIEREK/I+D+PPRpG3T8WfjXnXQlwfLVf33J1zfQDoTLshIvo1tO7LV4bXo10I2nhdvP8AzI292M2TdwGs8i6Ui54HGBCCRAxC3uer/SzN61Kdtw/bdRki7ov+Pw7w/wEAZZqfWEU+vAlw+iNVh1p5OAQSZOZVHjYZIMqJg548AMCUycWpXqDadaX78m6TC9o4ILT78m4HABTTz82iz08JCOOQMG9f3me3XZ+buteTet8mrgc0VJRlHDACAEY+OzO2u9kd6HaGddF0WLeua9xrkdYmQmwAU1R2MVl08aqW3Q4AaE7eZ27VMLGqOQeMZWQW5ro/F6k81AYAWGrcszNjOwkRxUUDOQhq9+W2g8O61unyAABNii925MJT9z3qF4vPKt1HGAgs0J0Zs1F2nIjX567pn8U54fnu4mcLAIpKxCnQLswSHg4lQAQA+Aua+AJQ1B2GQS6IuEAEAIi8Y0LR8WZOOFYCQOuoRJyCoc2+3FQFIhWDAMYqvpCTixrdJ+t8vgFroRIRiNhjTNkxSBG2AQBWQCXiFBwNrW95k6gAwJTIRVh8IWb3xbfLRVrehZqEhwSIwMokQJQgEUBQdLwpEx+z+lC3Mr+utp8fAGaGEHHspArRTqYyBE1NoMJFNoAhKLrIKrv4yruYW+UCDwCAuvR4Y487efuUPZ6VHdu6VBb+5d22y21LAwC0ihBxbIqq/fqYhdm+FunCfMwtu34dZScYAFCm6ELJ7o9vz7v4svvybgcAYIjKjlnxsdC2JrVdNEBRAgA0ihBxLGTmZZ192ZJxEIcyFmIVhH4Ahqrs4ijvIovAEAAwBfZ4VvXYZkPFvGNn0f6qysK/vNuOuG1pAIBWMbHKWGiAOJTZl1edPEUDxC7+Ipj3tbr8+gD6oxcu8YVQfEFjby96DIBBYnIVoEd5x1N7HC073gIARotKxDGQcQ9l4pShBIjryPvLIQA0RS5a4guXvH155AKHixwAAJbTY2bRsdPuf9Q17Y2kf9AX8TYAYPDGV4moB5o5BVESIoohdFvWMRD7GIMRAPJoQCgXK3Zd5e0DMHpUIgIjEQeFp7gmx+R4v0wWuUqX5N3heQ5znAeAtlGJOAZShSitb3kTugBA1yQU1GBQl0ouSuKwMG8fgNGTAFGCRAADpz2RpEmAqCQ0lGZRnQgAgza+EFEPQOgPVYgA2qQhoTa7rwghIQAAw2f/sKeToej1Xd0qRA0cpQLxSNgGALSKiVWGJO4q3GfXYTtxyqqTqADAMhoM2hAwDgvltrz7AZg9ujQDM6ahoQSQdh0A0Bq6MwMAuiFBoIaBdt3SfVqpoKGhXQcAANOlFYbLSGC4xy33uvtqNWMe+3xVn7tME88BACNFJSJONKSJXACMXxwWShhow0KraD8A5KASEZiQOJirUlUoAaI45BeLx+jz6OPtdnxbFWXPBwAzM80QkQ/21Wj3aR3gmBARQJEqIaCuK4JBAA0jRAQmZJ1rOPvYpq8F+7q25JoWwAClSfKcCYaI/80vj32VX6Kaq8PP7Sp+bgCW2Bk+L45Gnxd2f9F9AKAhGxtPTjY3PxO2AGBCuKYFMEDTDBEFH7r1ECACKFMlHCQ0BNADgkQAneI6E8CMMbHK3El4qAEigHmTEFCDQCtvHwAAwJTsd+c70lYhwaKGiwAwYdMLEfUDXP4yxF+HTnS9+9lIi0kFIlWIAKw4VNQKQ1nmVRsW7QcAABiLZWEi15kAZoxKxLkjPAQgNCwkHAQAAHNhA8N73LmOtFUQLAKYiemFiHyAlzsaWlco7QeGK640jBEeAgCArvV9/bBOmAgAE0clIgBMlT0JjwND2f9oWBcEhgAAoA19h4JlCAwBoJbuZ2fWAwjVgt3ScRAv4+cOTJZ+vp7iF1shoXzext2V+SwGMBHMzgwMHOccADAZhIhTd7MGB37RSYi4yv8x7wtgdfr7ozREpLIQwEwQJAIjVecawI5dCADoRffdmeUAQVDUPgkPNUAUEh5ShQiMm5xo68l23niG+vlK12QAADAk9hxmHbtcO7/geS50+6UBAFoz7DERmzrYzIV0WdZuy+qir/KtS8uC4rz/12WPAeau7LOQ3x8AADBGdc5hqEAEgN513525Dr1o5uK4XB9dltfB/ytQjR3HkN8bAChEd2ZgRrTa8JhfJLeZc6Pzwm37/CK5ivMmAGjSsCsRq/5lapc7WEibuyF2WZbgI66gqvr/CsyB/R2x60VdlQEAALDce107JzqfAgCsZdiViFVpgHhkhhfYWoXYdZflZfKCQ2Du9PdCfh/yfkfs7fFsygCAQlQiAjiBBoh3cS4FAE0ZdiViVRIezjFAHBoJQPKCEQJEoJj9HbHrTI4CAACwOgkPCRABoFHTCBHrygu7sDrCQ6Cc/o7Y3wt+RwCgMVKFKNWIAAAAaM88Q8Sxy5uFeQgIRTBnNkyXrsjaHTkO2AEAAAAAGKF5hoh1wi4bDPRNxj/UMRCVjIXY5XiIeT8PwkPMlQ0Ll+F3BAAAoJqmr8Gafj4AmCkqEdex2x2IpLUpr+pwiLMwA3MjJ6KPhnVhw3Q7niEhOwAAAABgAggRl+kjACjqrtx11WGeKj8P/tKHqbEVh3H1IZOfAAAANGuVa7Cya5BVng8AcAJCxHUcdgciaWXWrVYcYtUhISGmqiwsjHEyCgAA0K74uoPrEADoFSFin/a6A6C02OHQxopwBVNjuyfbdQAAALSvKDi0oaJegxA0AkBrCBHbVqVacUzsQRqYgqKKQ8JCABiVzc3PJBsbTw5bACYhvubQbUJCAOhFmiTPycI6sBwhIsZKg0IJBqusAwBGR0JECRMBjFDV64ym7wcAqIxKRNQjB2EOxBgTCQY1HMwjgaGGhnYdAOZu1XGd8x7X5HOtQp+n7vPVvT+A9nE9AgC9oRIRyxX9FY+/7mFo4kpCGx4SDgKYOg278oZRiYOwKkOt2OcrCtLKblP2Pk0+V46Np5y9vRKxra8lt6kq94npY+zXKLs/gOp0zPmD/E4BQNMIEbEcISKGLq40jENEAkQAY5IXMKkq4ZXKe7wqu01V+Vplr1H32+cR6z5X0eOdrRCx6HmskudZsI/Je74qj1/lPsu+LjAmXV0v2K9DiAgArSFExInigz1hIYaqKDwEgKFYJXxSRQFT0eM1YNLb7X31NmvZ68h7zMBtjYlY9n03pcrXKPoZV/n/kPtU+T+qch+V9zWANvURIgqCRABoBSEijtODryJExBDZ6kIqDQH0qYvQJ48+ngDoBJOYWKXs/7fN91zRfextea8JGCINERVhIgA0ghARxxEWYuhs5SHBIYA25IU0apUghtClc8zQnKMoBLT7i97fZbcp3ucYKhsmEiQCwNoIEXEcISKGIq4wpNsygHWUBXtVwpGycAWDQ4jYonV+XxS/N1jVqtcqEiTuCOsHeP8BwDoIEXEcISL6ktdFWcQhIuEhgDxFIWFZ+FcnGNT7En6MAiFiD+zvSNHvllr2+8fvG4rotYqoe72yLzx2p18kR8OSUBEAaiFEnCPCQgxNXohIYAjAqhI6FMkLIwgqJosQcQTW/X2O78Pv8Xysex1zTni8hoiKMBEAKiFEnKOigy/hIrpCaAjAygsE4pCvLHSIxY/FrBAiTkTZ73zRbcr+7sf35XMBllYoCoJEAFiKEHFOloWEhIhoWlFYSIgITJsN8fIu4KsEAHnPwcU/KiBEnKFVPmcUnzHQIJEQEQCWIkScE0JCdI2wEJi2XeH3+oj5vbYX7nkX8kX7ynCBjxoIEbFQ9LlR5TMplvfZw+cSAGCGCBHnhBARXSI0BKbPhoh5F+ZATwgSsZIqYWJZCMnnHgBg4k4KS0yVBIcaHgJdkPBQA0QA4yGBoIaCckFsm7LbstzhlrYKUchFNBfSAMZIP7/ilifvNvt5adnPTgAARixNkmePrxJxx0f98thz/BLF+FmhTTvD++uoe3/pupJ9AIZvtx4n/CI54n53dZ86HO2z27IODMzGxlckm5t/G7aADtjPxPgzVPHZCQAYuXGEiHEQRjBWzgY7It4GmpIXIvI+A/qnF6k2GNwV9im7TyoKl13QcuGLESFERK/iENF+bsafz0o+k9Wqn7c3hsddwuc0AKAdw+jOLKGgBoNW0X4JD5cFiEWPBbAaCQk1KBRxaChLAkSgO3KRGV+o5u2rosqFqtyHABEAltPPy7zPzbx9osnPdAAAWjKMSkQN++JgsGh/Fas8dp2vNwRUgmFd9ncgb/0U1/T9xfsN6Ed8QakXo3Z/3gUqMCNUImJ09DPcfn7rPltVLux98x7Xt6LzSQDA6I1zTMQmTeEgpycPD/sFoQ5WVvT7wAkg0K6yi0C9LRbfd4gXkkBPCBExKXboiSJx0NinvHNI0fZ55J7wtQ5xHASAthAijjkciS8suXDEqggJgX7ZALAoNFR81gOVECRicuI/FtnjhYaIGjTaY0U8Jm7efdrU5nmmfW5CRABoXb8hYtEBhUCjmvhEAqhLf9cUv3NAO/I+r+OwMO+iUPAZD6yEEBGzlHcM6TtEbJO9btwb1g9y3ASAthAijkX8lzX+0oZ16ZiGj7rG7xrQjryLuXifIiwEGkWIiNm4ORxXLjLHET3WlB1b9D62K3Te46o81xAQIgJA6/qdnVmCi7zwomj/WEgIGld4rUIOhHowBFZl348SHGp4qAgQgdXIRZVeWCndF98mF17xxZfuy7sNAIA88fGlyLrHlqpfZ0gkPJQqy33udWsDADSq/zERp1h1WPV7yruf3cdf07AOfS8peU8xozKwvviiSi7Sii60CAeB3lCJiEnS403bx5f462iX6LyJW8pua0rV66s4ODzg7i/7Tgnb97T4GgFgBvoJEe1BoOoBYYryvvc5/zzQDH0PKd5LQDPi2THtBVxXF3UAKiNExGxcG45BV7R4DIrHVVQSHJYdH9fR1DUjISIANKabEDH+0CcoA5pHeAiszoaARVWFdswoAINHiIjZ6CJEVHGYaI+JevzUwO60sJRqwFVwzQgAg9N+iGiDDQ4AwPqKTqg40QLqiwPDshCRKkNgdAgSgR7oBJB1Q8Q2z2X3R8d2KhIBYCXdhYgEG8B6bCAv7O8UYx0C5eLxmvLCQwCTQ4iISbLnfV1WIa6q7BzW6jJEVISJAFBLu7MzEyACzZPfJ36ngGokLLSBYbwt4SEBIgBgzGQswuvNsW2s2jzHlbDQNgDASpqvRLTBISEisDr7+0OlIVBNXGGoNCjU2wkOgVmgEhGTd6k7ru0J6+e4dibHNwBAe9arRJSQQ4OOPG3+NQkAME9aTahNuioXzRoZVxrG2wAAjI38cVmPgQAAdKj57swEh8D64ipeqUCkChFzVxYWKg0JCQsBAHNwgznWUYUIAGjZ6t2Z6aoMNCOv2/KjfsHvF2ZNKywkDNT1Y67p5CgAsATdmTELHwjHyLM4Pm4T95jjvBoA1lavElE+iOMPYwD1SViogWEeOcnhRAdzo5WGZdWGBIgAapAAUYJEAD1q6hrSPo+u5+0rUue+AIBcq3dnJuQAVhOHh/Z3iW7LmAsNC8vGdLJdkumeDABAPqlAnFIVYlNhn55j23NtAMBamp+dGcCJ9ORHTmA0RCQsxJzYrslCqw13+AUBIYC20KUZGBl73mzXm9TW8wLAxJWHiEUfrnzoAtXo74ridwZzokGhdEHOG9+Q4BBABwgRMVk36jWZXySXzei4uu4f5bmeBYCVbO/OLB+mcegBoJ688Q7lBIWTFMyJBIVaZSgkMCQ0BAAATdnt2l53vqGtDs7NAWAl5WMiFn248qEL5JMQXmdWFvyuYMp0XMN43Y5xmDcRCoEiAADrOyW0f/apYVQhdlmQkleBuEqYCACoZXuISOAB1JdXech4h5giDQptYFiGoBAAALTloDvPsE0RJAJAa4rHRNS/IhEqAl7e2Cs2PCQ4xJTlhYZ5VYYAMECMi4jJiK/Rrg7bV03smBxXNFa9JtUA0YaKMa5zAWBlhIhAFUVhYV6wCIxdHBhKWKj7CA4BjBAhIiZDr9Fu9ovkghEdl+tcX64aIoq4EjEOFLnOBYCVlc/ODMAjLMSULeuaTHAIYOQIETE5t4Zj95BDxDis6yq8K+rOXFadCACohBARWIYAEVNVFB4SGgKYGEJETM5QQ0QbFA6l4i8vVCRQBICVlM/OPHZy4NKDF1CFBIYaGtp1YAokNLRNSWhoGwAAGId7B3yuKuFh3wGiIDAEgMZMM0QkPERVVYJCqUCkChFjFQeGFqEhAADjtCe0oakTHHZ5zSZBom0AgJVMszuzHoyG8JcvDFMcHBISYio0MJRwMK42BICZojszJuX2cHx/lmtnjfj4zjUbAIzOtLszA8tQZYgpKas4BIAZkwBRgkRg1OLKvUddu7Dg2D8GdaoWAQCDMI0QMT6gAjHGN8RUaPdkbXaf0tBQlgSIAABMy+vcsX1XWAcAoEPLQ8QxBnT8VQvAHBEaAgAwXXJ9c6tbSnfmnW4p7RaO+wCA7kyjEpHQEHnKqg/pxowx0UrD3a7tcNsaFmpgSHgIAMC8HA3Lj7pzA2kAAHRgeYhIQIcxodsyxs52TbbrAABg3qR32CluKU3cFZYAAHQkTZLd05udGfOy86/88uizt68DY7IrvHfVEfce1n2yDgBYy8bGU5LNzU+HLWCEdrjzgv8Y1veG5RkDPEeQ1ymOcf4CAFNDiIhx09BQEBxirGyASGAIAK0hSMRkPBDOHeYcIu4OX+cw504A0JVpjIkIECBiyCQk1KCwaF0QIAIAgDKfd+cN0lR2MKwMiISHTQSIEkZqICmkeMAWENiu3QCAThAiYjzsiYOuS3hIgIixk/CQABEAAJS52537HnBLaXNig0QAQK8IEQGgTVppqCGhDQwJDwEAwKqkK3OqgyNOUFzNGBcPHHLrO9xyLyEjAHSFMRExXPpXR+2mQMUhxsJ2UVaEhQDQO8ZExOjpWIi7/CJ53MzPL+IA8SDnWwDQJioRAWAdOq6hthjVhgAAoEmnf9Zdxbkm7ss595gTCQ1tcLjP/TwkWKQ6EQBaMa8QMR6cF8Ml4x1KBaJ0Y2DcQwyRzAioswLGNDgkPAQAAE253p133BbWxaGwxIlhoiBMBIDGzas7swaITcwWhnbpBCqEhxgqDRAP8x4FgDGhSzNGS0JEcRnnHpVIgChjJooD/MwAoAnzqkSU8JAAcVioDsWQ2S7KcXflY6EBAAC0zQaIMi6itHvNeQlOFHdzBgCsjTERASAWB4YAAAAYHyoQAaBRdGem22w/4upDKkQxFDY8ZExDAJgcujNjVPRa5V5Z96vJma5x7QIA6AGViOgXXcwxFHH1IQEiAAAYgrtdkyFUZHy/01x70DUAAHrAmIjM/NstHQOR8BB9s6FhHB4SIAIAgCEouk6RMREBAOjYtENEDazQD+l+oV0w7DrQBw0NbXgYIzwEAABDc1Y4PznsF8nDYXkj59YAgG7RnRndogIRQ2ErDqk+BIDZkPEQZVxEYNRO/1SS/FPXAADo0LwmVkF3tOqQruLoklYYaiAYVxwSFAIAHCZXwajcHM5nzvGLBQkRRfpivwQAoANUIqI5dB9HX8q6KAMAAEyFTK4iTcLDuQWIXGsAQO/GEyI2ddDg4NMNJqxBH+Juybod7wcAABijI6EBANADKhHRHBnr8BS3ZAIVdIHqQwAAMFcfneE5kFxr7HHLve573xcaAKBT4wkRmZBjOOJqTqo70QUbGhIeAgCAOTrTXQ9Jd2aRnRtWJqLuNcVO187hnBAAujSvSkSCrtVVPajTjRlNkqrWsspW7aJMd2UAADAH2V1J8rBbPvsNfnuKyq47DrrzPWkHzHmfBImEiQDQiXnNzqwHIyoa6+Nnh67Z8JBgGgDQMGZoxmhIcPjg8/z66R9Jkj9x61/3br+d/pBfTknd6w4bIN7FOSMAtGlelYh0iV6djHUoDWhbXH1IgAgAAOZOwsMz3DlRek6SnDXxc6O612w2OKQiEQBaxcQqAIZDxjrUcX7oGg8AAObsVndeJC3Z7Vt222J38hm376HXTLMKcVVlQSLdnQGgMYSIONGyceiAJtkJUxThIQAAgPfQyWHFyW5Kkif9XtjANnGQSHAIAI0jRMRxZYMYUxU2DXvc/6+0vOCuK/ZrS1h9zK8uMEEKAADAdneF5WI64uDJnC/lkiAxHhdRto+65b6ezn0BYEIIEXFieEhgiK4RHAIAACxxWpKkFyfJH70qSe4lECuVFyYCANZGiDhncbdlJp6Zpt3u/1iaeDS0riv+iiofCawBAADy7Q/tItl4r2t/KitYxQF3vikNALAWQkQQHqI9ReEhAAA929z8dLKx8ZSwBQzQPaE9sNjysh9Ikpe483ZpAAB0jBBxzrQqDdN2OJxkSjWirOt2m+Lw0FY+dl0FCQAAMHYPvco3cR9/oAUA9IMQcU6YdXm+ZBxuMxZ3a8rCQwAAAFRzuzuf2uGW57tmJ1G5/01hBQCA7hEiTlU8WYqsx1WHdGOeB5mJTk5C20R4CAAA0J4n/YRvZ7rzK2kAAPSAEHFumMRi2uLweI9bfzisH2zw/96GhoSHAAAAzXqdO5/6trCe3RRWnOxQWAEAoHuEiFOkIZKtMqTqcN6amo0urji0CA8BAACaczS0ZHeSPPiTbnlYNpIku803AAA6Rog4JXEVGuYnDosPuXVp64rDQ1txSPUhAABAc+5051zSTrCVKgIA0AtCxCmi6hBNorsyAGCiNjc/nWxsPCVsAQNzICyf9rwkOf3pbkV33JAkqcy4AgBAtwgRARxnKw7zqg8BAADQrQfCUjz41LACAED3CBHHbOdf+Qa0iepDAACA7pwbnXdJD+b08Uny4Cf9dnq3XwIA0LE0SZ6VhXWMwY4woPKx3UmyM6wfdevAKnaF99AR9x6y6wAAzMTGxlOTzc1PhS1gALKP+GX6vCT5TDg/e7I7P3sgrJ/BuRoAoB9UIo7NKaEJCQ8JEGFlb/ANAAAA4/S7J/smYeIxty0t+9skOf0LvmU/vbgbAABdI0QcOqk21IpDoEhZeHine/9Is6TqUJpUHZ7nti8O69IudevShmSPez3SAAAAAABALwgRx4bqQ5RJf9G3Ihoeqgvduvx1GwAAAMNwrjvX/9Yv+PXTP+67L6df4bs3L9q/8LcBANAxxkQcmnicQ8Y9RB3Zv/fL9H/1S2HHOrTrQkJEcUuF95dUK4qbzH3z9rVlf/ha93TwtQAAs8K4iBiMu8P5zstCiJgcTF6dvHix9tvJjy+WSfo2vwQAoGNUIgJTFVcdCu2yrCQ8rBIg1pHXHVrCSg0s7ToAAABO9NjJviW7kt9OPub3LaZpdi37oN8EAKBjhIhDoWMfxt2V422gjFQgPnJ2knzehHRxcLgqqTaMKw7z9q2qLFzUKkQAAIA5uMe1P/ar4reTvwlrAAD0h+7MfYsnTSEwxLpkJj/xNPnrtdNEgNgFDRBtZWReeEh3ZgBAw+jOjMGQKsM/eKJf35Ekb/h6d7nm/GL6rMVyqwox/Vq/BACgQ1Qi9skGiFQcYh3SbfkzoammKhC7Uta1WnZLeCjNViye75bSlL3Nrhe53t0uDQAAYAhMgJh8q189zbUfyz6WJNkb/A4AAHpCiDgEhIdYVd64hzpz3xRo1WGTOZ9MBiON8BAAAAyJHY5GPPzB5BdP6MZ8lCpEAEBv6M7cB2ZcRlM0QPyoXyw8YWLvq6ZnZdYZpfe6dhm/gwAAujNjIO4N5yi7XDvFtdOl6/LTZI+7ajs7SbL/Eta/2S8BAOgYIWKXGP8QTdDgULoqzylEVIyJCABoAUEieqchovyh82HXznDnPNmvLHYliVumfxjWAQDoB92Z+8D4h1hFXtdlHfdQgkNtUyHhIbMyAwCAmXqhjIO4cMi1/ccnVQEAoCeEiG2T6sO4AhFYxgaGcXhYNmGKjKUTj6czdjqhijYAAIApO/XtSXK6ayL9fr8EAGAACBGBoYmrDVVZeDhFGhhSjQgAAGboaFgmyV2+/bMwczMAAD0hRGyLViDarst0Y0YdGhhWCQ8/495r0qZoh2vnECQCAICJk8lUpCXnLdp+WbV+nu7MAIB+ESI2je7L6IMEbdKmNi4i3ZcBAMAcPFBw/bDooXIgNAAA+kWI2IS84JCqQ1Rhxzu06zjuLvd7JI2JVgAAwJTtcu3r3u/XnXcmXxbWgvTbwgoAAP0gRFxVUcUh4SGqKAsMVxn7cGoViNJ92XZhlnWptAQAoCWbm59KNjaeGraADsmQNDIAog6CmH6t++cMv744J7zTteuTJPvXi10AAPSFELEJBIeoKg4PbWC4SnjYtGvda5OmLnfr0tT5bl2aZSsE825fRzwWIt2bAQDAlD1ydpJ83p3/PPI5t3F3kmRfQQUiAGAwCBFXoRWIBIeooyg8XMV97rmkVXWlu6+0PtUJGKX7sqVdmgEAAKbkA+7cSE6PjvnNxXou6essDQCA/qRJ8qwsrKMqQkSsQkPEdasNs+/1y/t/MknOjJ7r+vA1LjP7Lw37drp2TY/vWQ0QbzOv4cKw7xazz95P1h/1m8kdPb52AMAsSHdm6dYMdEZCRKVDt7zgs+6fQ349ucqd8/2O2/df/Gb6PX4JAEAPqEQE2mK7LjcVIFpxgLjHfY0bwnqedQLEuJvzKiQUtAFiFRogqriaMd6u42b3OGkAAAB9OcudG0l4KE3O7RYBorguLD8WlgAA9I8QsUw8eYpuMwYi+pS+zbcitgpR3OC2pQ2RVCDaKkSRFzbWqUKU6katcBTxtpKAMg4pAQAA+iITrGwj3Uic17n289/sGwAAPaI7cx4bHAoNDHU/ASLy2GrDNioP5+y88POsEibGXaTjba1c/Ad+kVzC/xEAwKM7M3oRj3O9qEY84teTm/zi53/WL+M/FgMA0CFCxDyEhVjFnELEi8P3d1NL3592nT7gF42Oi6ghYt2u1QCAWSBIRKc+6s5LdFIV9YIXun90EpUX+8VjP5skj+PcBQDQL7ozx3a4A7kEFgSIWEaCQg0LYxIeUoXYHAkPm5pYZZWxGQEAANqiYyKeMAHzw67d5drFiy0AAPpGiCihoTRgDmRmZ53duch+9/sgrYxUIDZZhSjdlbXLsswmrWOIE/gBAIApkypErUR80gd9W9DuzMKdC1GFCAAYAELE2DF3gJYG5KH6MN+d7mcirap97r7SygLLK/g9BAAAM5b+rfvnHNeuWmwCANA3xkQE6rBjHdr1qdCq3CpBuoSA4oC7r10X8fbesK2ky444JSzvmdDPEAAwaoyJiE7pjMxP+oK7MnueX8/+i1+m3+zWvyWs/2e/BACgR1QiAlXFoeGUKw+vd9+rNHWzW5cmbndLaerzZl1k7w8rJSRclCbhIQEiAACYGz3XusWtS7v/ZB8eZs91G3/uW/YRtww0bAQAoEeEiMAyZV2Yp+aB0KrQIFDcHbbVH31q+/ZBt24bAAAAIjKRSuzGJHnobX7V/hEXAIAe0J0ZsOJqQxse9ll1qH99fnKDryH7Gr9M/8wvRdnXqdPVGQCAEaNLMzqhvT7Oc02GeDldJlX5Btf+o2u/4M7R/qupRgz3TV/llwAA9IBKRECVVRv2GSBmv2Vm6mtA9g99yyPhocwQ+ED0s2AGcwAAgJZ9Q/KK5O9ck8lUdrnztX/vdwMAMBCEiEDMBoay3meAuPA035qsQhRSgWirEJsigaOGjnYdAAAA3o1yjuSW57umE80lH03ek3zZovnKw4fdudrzfHsoNAAAekSICCgNC4c0/mGVSUrKxBOkiPR3fMt+2rfYGe7nIM3K68Kc/ZvQGvgrufzM9edu19t0vvsa0gAAAAbnqF9kv+eXAAAMACEi5q2rwGpd6dlhpUG/+z2+VSVBooaJi/F5pKtNDns/u15GzpPDuXKh3e7/SZoV79vr1m0rQngIAACG4B7XjoSW/LU75/sKt9wrG9tJj5Sme6UAAFATISLmKy88HEL3ZansW7RQhbhOgHiZ+16kteXU17jWcMDZ1v/BHvf/Lc26ref/awAAMG/b/oj6j8NS+jhLczc++Lwk+ag7f5EGAEDP0iR5JrMzY152fSysBEeeFVYGIvsPYSUEXOmGX/ZhR/hZHYt+RtmmX576VL+Mbx+iPeF7OTSC1woA6NXGxlcmm5t/E7aAhn3AnZP8cVgXe1x7mUyi94/ded9/d+dZb1zs9ueC5yXJX53sN5/DOQwAoF9UImIeJDjMCw+HFiCK9B+5f2SEbenS0mOAWMUjn9oeIEroqMHj0Eh4SIAIAKhAAkQJEoFWPOqa9FjWtnCaa/8uSTJ77neeX0hXZwJEAMAAECJi+sYSHm4TZmTumwSE0m52P0NpW/46NAAAANRy0DSxKyyTc1075JoOFn04Sf4oVCECADAAhIiYrrj6cPDBYaBdhft2sfvZSSsTV0pq6AgAAIAaXhKW0rdZ00VHKhVfwrkVAGAYCBExTXF4OJYA0RpSV+aL3M9Pmkpf4xsAAADqkcpDadqVeTEz87EkOfWTfrloO1wLs65c685rpQEA0DNCRExHXHkoxhgeDsVN7mcnDQAAAM2R0FCa5oXLXBqWAAD0jBAR41cUHo41QJQKxKFPqJK9xTcAAACs5mVfCO0rwg7xfN+e/aYkeeRsv0tcwR92AQD9I0TEdIw5OKzq7o/51pfsx3wDAADAarQ78/0n+yah4WN/m/hxpQ/7dtitn/pB3+5wuwAAGABCRLTv0o/5hvXJWNvSrPPdz1ZaW7I3h/Yv3YaMz+OkP+wbAAATtbn5N8nGxleGLaAhd7pztlPCunXSZ9251leHDQAAhokQEcNwoTuhkqbOcevSyuR1Yx6CHe41SRuaOGzMCx8vd9vSVPY+989L/bpKfyasAAAAoLIbwznWt348SV7rmoyL+IIvuH/uXOxOkodd2+3aDy22kt/9Wt8uoCszAGAYCBHRvhvciY+0dcSBoV2fajfm7EO+qez3k+T0jyTJGdH3epvbltam9E2u/UvfAAAAsJpHw1ICw5d9MEn+QLozv9y1y1zT6Zp/y533vSVJvvXfh20AAIYhTZJnZmEd6I5WwFUNvzQ01LAw3p4K/Qv1Je77ujesvyR8jxIiivSVfgkAAFol3ZmlWzPQiOwd7p8wNIz2af6Tr02Sr/v7bkUDxNPCcr9fMHwMAGBAqETE8OUFhsuqD/e5x0gbknW7OUt4SIDYjJ3u/0EaAABAH9LX+ABxy6Nu33uS5MG3+pYc9e1mzlcAAMNBiIh+VO2Ca7stz4FUIEoTUoGoVYhoxlDHqwQAANN3/zcnyR+c7Zau3efOR85y53lf9253w9Wu7U2S7BWLuwEAMFSEiBgmCQ9tgFi32/IBd39pqyqqZNzr9knbE1odx9zrkVZVPNkMmnPU/T9IAwAA6IrMmSK9lPe4JpOqZBvun5tc2+Va8FWunSUrO327iPMVAMBwECJieOLwsG6AOEa73fcsDe2qG+QCAGZNxkOUcRGBtclkead+Nmzk+XO/eMTd53q/unA954cAgOFgYhUMgx330K7PhQaIhwm4AAAYEiZXwdqy14eVy5PksSf6ValEFKf/Q/ePdGd+72IzSc5z7R6/+vPf55eXcX4IABgGKhHRr7jbsphD9eFn3PcsTUl4eK1b3hr9LAAAADABl7t2jbv6+tEkOej3HHeHazKRijBdmyU8JEAEAAwIISL6EYeHcwgOxefd9ywNAAAA85D+WlgJZEKV03/UN5lQZRspUZQg0YSJAAAMBCEi+jWX8DD2pI/7Zl3gfg7SrKmNlcjsyAAAYJYOhaXzgJwLXerXF46FBgDAsBEiAl16wrN8myPCQwAAMEfZm90/MnHKS107R/Y4O5IkfWdYV+729JVJcv9rfAMAYGCYWAXdi7sxz5GOh/jkGX3/GiIyOzIAYGSYXAVryb46rJwSlrcmySNPTJJT35gkj701SU76VbdPbnu+2z77eNHimZwzAQCGhUpEdKNoApW5yuvOPCV0WwYAAAhk9jxpZY76AFHsCA0AgIEhRET78sLDuQaI2V/4NkdSgUgVIgAAmCUZ8/DKJHnod5LksVCFKE56g18CADAChIhoT1x9OOfKQ2HDw/SbfJsqGxjudO8BaQAAALN0TVg6T/pRdwX2vW7l4dCEnDOd5/Z/wbdnfzZJ/om/BQCAISFERDvi8HDKAeKV7nuVhvG52f2/SRP73FIaAABAU7JXuH92unZbaHmOunbEtYOLrYXdrl3IeQkAYFgIEdGuuVcfbiMnh9IGbLc7WZXWFFuB2EQ1Yp2xFve6+0k7JzR1qVuXBgAA0LLHJzcv2lbV4YM/69rb/Hou6fbsnOcXAAAMCSEi1hd3W9b1uQSI17jvU1pVqc7QN3F9d2Guktle5P7fpIkDbikNAACgIV9MfmXRfJDoTkxO/7hrbzZB4jmuvdQ1KT3c65pUJUpzbuG8BAAwLISIQNuyd/smYyA+9swk+dKAq+AOu5NVaU066p5P27qWTc6SV6l4l7u/NHWDW5cGAEBFm5t/k2xsfGXYAup5SvL9iw7N3k2umW7L24QqRAAABooQEeuLxzyMtzFPO0LrC+9DAADQu+vCUuwJy72+GnHLX7t2il+VuPFHnpkkF3AOAwAYHkJEoEuPcyeE0tCOZZWKAAAAXcn+brH4dHLGonn2L6yPhqWTviisAAAwXISIQOtOC21mqAQEAAAz9orkM679mWsPuC3pqnzHYn9y/5vcP1J5+GLXDru2O0myDyXJHz3Rt+s4fwIADBMhItCJnf7kEAAAAPMlAeIL3h42IjKBs7SLBzx+NgBg1ggRgdZJtxXTXQUAAACT9570mck9binNz768a7HmufUH/7lbXuw3ZeZmMzFzcg5BIgBgeAgRgbZI5aGtPmSsGwAAgHnIXp28Ift48v1uVWZmfkrygcVuTwLCR5Pk9F/1m3ls3ggAwEAQIgJtyH7f/XPEr6cbvuXZ704ipQEAgEHb3PybZGPjK8MWsJz0RfnF5AeST7vmHQxLJfHiXa6F8sMDocnwiQAADBAhItAK+fOxa8uqD+Xs0k7SBwAAgNH7xuSXwpr36eRxfuUFT3f/yIQqMnmKhIhClu688TvcQiZVuSU0AAAGhhARGALGvQEAAJgU+ZPym5NfSl7o2lOSL/mdC3as7HPCMjifc0IAwHClSfKMLKwDaEr2236Zvtovy5zzcb+865l+iW7sDz/3e/i5AwCq2djYlWxuhuFKgDLZi5K3JHcuVm9a/JskH16MhahdUGQaZjPw4Y880S8Pu3Yb5yYAgGGiEhFoUvYe31S8jWE5z7VrQ5gIAADQgDdmn1gspZOytB9abAkJDv/ar4rHnugbAAAjQYgItEEqEKtUIUo13BgGz97tXqe0MdnrXq+0IlQgAgCAFkgH5XeHKkQlNYevSPb6jUWQaE4A7zdViAAADBghIuaj7SBs0YXZnRCmr/DbQtbttpIuzNqNWdCVeXU73M9RmrXLbRf1NpPgVrsyX+F+7ofc8uLo8QAAAGs6zbTjnhaWzklfcO2Dvlzxctf+58VeAAAGixAR07Hv477tCa2One7+0romw+KMoSLusHuN0oYkLzyMHSScBQA0R8ZDlHERgTKvSZ+xOMXTuZfvcm23a+/RGZpjp38krDiMhwgAGDBCRMxHV0GYTqqCbhxz/6fSrCNuW1oeCW1tcHuTW5cGAADQsD1h6d2bJA89Naxbh5PkNrf4U78FAMBQMTszxu28UImmw8r03S1YK+PiUMuaejdm7TIu/ydFQR4AACPFDM1Y5uPZJ5JH3fKrkzMW29+YPLBY/mHyx4tlkn57knwmnC896YPuH/d++vlXJcl7/S6qEQEAQ0UlIrCO7J2+VcE4iAAAALPzvrhkQwPEhSNJ8ssmQAQAYMAIETFeEshJtdsdz/SBXC+hnIyLZMZGeuSDvpXp7bV2jCpEAAAwQz/gmoyH+KnkgeQ/uPabqVQhPnlx2zZP+r2wYlCFCAAYMEJEoEnpq32bE5kJWRoAAMDMvS/7xGL51ORxi7b9z813+CYJ42LWlecnyYOv8neQmVikAQAwYISIGK8hVPSlr3D/HKnepXnK+prhGgAAYAiyB5NvzJLk3a5l2ZfCTu8pyWfCmvGYO489/QvbOrUAADBkhIhAU/oMEmVCF53UpUsSGsYTqHQ1CzYAAD2QSVVkchUgFgeHSbJ7ESpuDXf42E8mSfqrYcM5yZ1HPXiyX5cqxFs4fwIADBshIrA2SdF0eugCMov0VLqoaGApTaYeVEfdia80AAAAJFn238Jaknw6ucJdef1oknzJnT8JCRCV9HImlwYAjAAhIrCKvFmZ0+8KKyXa6n59zD2vtLryKhjz9omi/QSHAAAASXrSM8Ladm9KznD/3hWauiNJ/sidQ33MrR71ewAAGDpCRKCu7NfcP6byMH29b3mkAlHalGhguWpwCQAAMDXZa3yLvCdNkt9PHnBrh0JzTvpCktz/g0nyLLcuTVzDORUAYPgIEYHajvhWpfJQ3eFODKUNTV4QWBQOFu0fq8s/7puaYuALAAA684zkl5IXpcmiKemlvK2nspxGihd8Iaw4p4QlAAADR4gItE1ODM8nnBqUc9z/x8GwDgAAsKbnJr+UfDxLkg+FdoLHPpckD7lmyXjZP+2aHWMaAIABI0QE6kp/zDeV/YxveYZYfThGdcdptHa726WpfW5dxx66zvz/DLVaFAAADN5pYWl9Lk2S33DLy1x7xUluQ6oQ5Rzk/pOT5KEwKzMAACNCiAisI/tJ90/Bn48v/bhv6NfDocXamuQGADB5m5tHko0NptPFcXk9kr88S5Ir3fJ2v5l8+wtMP+fDod3gzkekAUDTrnbXotKABhEiAquQ8HARIAa2MvFK90EtTd3mTgylYXVNjtN4wN1fGgAAQIP+UeqbHRPx8aFr806/SJI9rmlF4q/IDgBY4mJ3bSnNisd3j13rbov/unGf2ycNWAMhIlBV9ibfrPQnfMvDX5aH4aj7P5AGAADQkveZcRDjMRH/T9d+Mznk2t+4q69PmUTRodcKMA0yZJK0InlBYBeu4joIzUqT5Bl5Q/8CiGmAmL7Zrf9wWH+LX8a0EvEaPrQBAJgi6c4s3Zoxb6/PPpEcC+vviK6qfthdaUnhofjB+82NEiLKBG+/tdjij87AFGiAuM8vTvi9jgPEm8LtF4b9t7T0OXC9+bqX8VmD9VGJCFQl4aG0Mow7AQAAMBu/mp0YHqq3uP3/u2vnufWP2/EQhQypKV0NCRCB5tgJFcvGp5euvtIsCfkk0NNQL7bf7ZdWZNmQSRIaanAIjBghItCGHaENzQfcgU8aAAAAGvXdUU6YS8ZCpIAVaFbZ+IBdT3a5bEirOEyUCsS2qhAlKJXPHGlUIaIhhIjASuTPxzmzMjLmBAAAwGy8KfVNqhHzKhLf426TwaOemTyaJC9wF/Rf79rXuXaXu/E6zhsxUXmVflbceyuemNJun+eW0qo47H6npImyMO8Kt1+aJcFeWaB3j9svbWwKLluBVREiAkWyn/FNxTMyW3ndmIcYKJ7lXpM0kT3mGwAAqE3GQ5RxETFf2WOfSN6cExxaryi6XXqs2LHKgK7d7N5/0src6G6XpuQ9a5vdl8eGicuCxXVIIF8Uyi+rDJwyDUql+pkht9AQQkRgFemP+aZkgGydaU/Cw9FUJO51Z8AvCusAAABYhVQjlrsmSR5054fS/mos54mYHA0O4/CwSqBYR16lnxVfL8lklHZCSrt9h1tKw2ouCT87uVYtCnuBGkKBPYBC2Vv9Mn2jX8b0L2ryF+WxjTWhAWL6Ib8EAACVMUPzvEklYlVp+uPu3yuT5MGTE+nZnBxw7QKCkdm4O1wvvNz9n9v1O8P6ueG9YLd1Xcm+28O+14V1nRpc2PfTreF+8XssDgovCrfrft1WWoWoQRTGSwNExkbEmqhEBMpogFjFGD+QF+Ghu/jJnuq3AQAAsJLNgmrENJXU8ErXDifJ6R9Jkofd6hAn4EM5O0Fh3mSF97ptafF6EQkTu34fSEhom4q3lYSHBIjj1mY3cswSlYhAmThELKpGVDor2MAHyn5G5v9y/onkjMVyMdpu+qmwPkPnh/+32zhJAgBURyUiqlQjpulFYU2CROddz/NLqSZDMx4I53JnrPgzvS8KWc40zxOHhZbkw+Il7v4aGsbrwlYfqrx9cWUisA4bHup7dTTDbmGoqEQE8mS/5puEhnFwmDeJipIPZ/2AHpM5B4jipaEBAABUVL07s54g7nbnXK/wXVBtN1S4H+Zv+1bkM+7cW1pVEipqsPhRt7RtVXaCQmHXhQSGGhradSFBoQ0LRd4+CQ8JENEE7fouysanBGoiRARiixmZo6qCOEz8U9e0em2EPpE+Y7F8RvKA+74m/jGw1/0/SdsfmnWh25YGAAAwE2/JPrFonche41uZ7J3un6N+XWT/1bUP+/Yld54mTdzm2rIwUYNDlRca5u2zlYexvPBQt+OwEGjDle49K62I9IbTHnFqv2sXuyaXtXLbqCb/xJARIgJF0teHlUjZh+8N7jZpI7ArtEnb6Q6Yh8N6GRnPkkGGAQA1SVdm6dKMefrNpTMyexvJv3P//pBrB3x1UIPj4Ek15Bcy36wPuW1pvx+a+lW3LpO0ije7dWlvDE292q1ri3252ydtS/ZYaE/1bbHveb4thJLL7LtD+2HfVPaL7p8QIKav9ss8T655nibdmm3X5ue4dWllJEjUBtS1x/1uSyuSF/TlhYPLAsO65NfLZPTAuhgTEVhm8ddRJ/0uvxS7wwf74fGeZDw+nAB+MVQljs6O8H9wrOT/QEJEcZSTQQBAOxgXcb7qzc78OPfv3Unyb785SU5zqznjIdrnS096xta2rIt4W8i+L4YwU3MC7Skt27p+djjfkxDR3q5L3afvZN2n99l0j3+ue6x9p39OnlMCxAX5ppz0s25fCBDTj7j1V7oVSU01ugyhe/oWv1yEiE76Br8EhqjKNcXF4T43FdxHA0Q7dr6Ghdcs2VeHHVdTX/d3uFb0uoCaCBGB2KI7s5P+mF8WhYh6FlUWYg2YhIhaO6Hdm0elSogoqt4PAIAVECLOV90QMcu+FLaOiwPBqmzIqD4dwkQNBJ/pzu/eH/5obINC7aTxg+52qUTMCxHf6W57RbhNFIaIKnuiX0qIiOmyAZVd1/H3bDgeTy5j6WQ1ejGiVaP6GPdGe/Vr/Rv6t+37rC9NhIhtuz58/T1+sS1EpKACDSJEBJSGTY+83S+1r4mOhRiHUSMNp2wF4tYszUM4OLeFEBEA0CJCxHmSAG8zhHYba1xN5YWBqu5tNpCMSZdmDQpfM+XzvinKm8XZsrdrOBdP+pLHBn/x18gLBcWyEFHJ49YMEbPz/C9Y2ft6JVMN1m4M39clE/u+MDiEiICSsOmR/+LXpeowe2tYLwgRR0hDQ7nUGW03ZgAABoQQcZ7aCBE1LIm3UYOGUzIZttAAS8MppeWYF5Sc1xeFd0VBmsoL8paFezZws69VtvV1xPR15YWIQj+Wil5nHPxJj/NlIeIyqz4uR52QvJaph4iKMBEtIUQEVPZrYWWH+80wXZcnRENENekKRAAAOkCIOE9xwFHkre5q66Bb/lryNUny8x/2OzuczE27M+uYiMt8V7i/dGfeCOvSlfkpYf3T8jzZg4v1JHl+WNrxDsN6+vt+aS2GDIp6+iiZkVmkf98vLRvAxSGV3dbunDIr7SG/uhUSxiGikCBRK+F2h6WdfCUO7zRg00BO6WN1QhYb5GloaPcpGyiWhYiq6PXE9GstCxFVg8Ff48J7TYYCSNPwn5q+wi/PD6/7tgG+7j4N+f8Tk+AOa08nRAREJjPnOek/9ssJe0b2ycVSzy2+mD49rAEAgDo2Np6WbG7+ddjCXGSP+XOpZd7prra+WwJEsRUiHg/08p4nPan8vOzd4TzuNdH520+E/T8Z9n9X2L7ctXiiFDkH1O7Nefve6Z5jw5wv6v5Py3Nn8n7X4PBprp3iVxdpmu4PE63obenb3eN+yq8v7uPaY6/ym4+TYPIDbiXc95EwvuITws/pAyGwlReiod9Z4bbbw22vc9vXh3X5+d4a1i8I97PuDbe9xN12d1jfChHN/fU29fLoue6MHnumuV1fs75OofuUvQ35Fu81J3Xvs+w/h/Vv8cvzw8/zNn6OW/R9L1m9/E4ALSBEBFT2Nr9Mv9cvJ+zx4aRQESICALA6gsT5icO/v3RXVc91V1VFXZx/0+3/drNPg8K8EFFnW9Y/9gpd18BPlw+79nrzvPrYk9253RtMCHipaxoECqnpWhYiCg0StffvIkQU2SN+mZ7q1r/Sr28lfLIsCRHTH3fr7ry7aoioJLSLQ0QAx8NDlReeAw1xhxlCxFG4OXwwXMQHQmuy/8cv0//DL6co87/uj08eWCwJDwEAWB8h4rxo8Pc5dyX15eFKSkPEInkhYlE1Y1mIqEP96XbVEFH8pttXVMVYREPEzSr3z77WL9MP+iWAbkiIqEXAHwvLS8gN0A53mCFEHAVCxPbNJkQMf8JN/8YvAQDAWggR5yUOET/tlk9ZckWV/kaWZN8REj7Hhoi2+3K87+MhxHtmCPHeF7a/qWIICGAmtHu9hoiKMBENI0Qcui+FDwMp80c3Jh4maldmqhABAGgGIeL82CrCohDxmSEz/ETy5CR519/6vsI9dTPMCyzL/IdwvviPOF8ExuPakB1c4T5nbgzrhIhoGCHi0GX/n1+m3+CXaE/2L8KKVupNtCIxdGlO0uN/DQcAAKsjRJwXGyCWeVE41fqQnnqFAM8GelWeqyz4ywsH6+4T0g1ax0Z8avr05PdDiPjKECK+OWxr1+i3Vg0Xt8ZLDDM5p/f4ZfZDfpn+gl/GFpNo6EzOOddBdtKTeMITS++Xd5948hOt5Dp3xdDlvvB4O8FK3j61bOKWMnZCmWXsJDNlE87kff95veHKvnbebfHX/LzbPvVTfj09y2+LeAzMK8P+a9z+7MV+Pf1jv+zK7vAaDud8r2J/uP2e6PYLw/5bwv6Lw7a6ye3XfbLelLL/X6AhJ4UlhugB9yHwIFOzd0v+RHzYHaAm3KUZAAAArdvjmgaIQkI7G9xVpY+zTfcru67i+4t4e5l3ZJ9cNKXzmrzR7XuFazJmoranuCY9XrYm8Fv84Vpjxz/3bStUFDvd9vf7JrL/6Ns2O9w+mXTF+ai7NpIWkzBOWxG9TYIyDcuUhIl25mR7u95fmt5PgjINy2SmZ53tOSb7NZmVMLHKa9QWvyb7dWSp/xFCX499XVVI4KShUxUSKGqoKOp+vRVkV6e13q+jJYFiHDQCA0WIODR5BxeqELuR/nRYmZ5tJ3QAAACorW4A9x8q9PeKqwzLqg6bJl9Lm0zEIhWI0jpRVIGo0m8JKwXqVO0VkQpEO8vzqhWISqoN8yoOi8j3YFtdVaoQhVSlValMk+8//hlIBWI8Jr983aKvnXdb/PWl4lAqEKXpdlyFKKQCUUkFYtdViEIqEIuqEIVUIMZViEIqELUKUUi1oW12X1F4KN2RtUtymcvdfaSJqv/XwBrozjw0GiA2cWBEfdk/98v0X/vlREiA+MUkHKj1L8J0ZwYAoDF0aZ6+dSuiugwIgTHS37GfCZcpb5JQWytV01/xyzK7wrX0EXctbdeHrKhbc9UxDcfyfWIyqEQcCi2TX/UvUXO1z/3MpDUh+1n3j+0bMB3HA0RHwkMCRAAAgFrWDQG1klGDkrLtvH3xtt1fV95jP5V9cjEbtM4IDQzOFLv92upES8JDJkXBAFGJOBR5g9ZiOQ0QD9T4uekEKrb78iJADNIfDSsTouPPpH/jlwAAoFFUIs7DqqHdMhJQNvXcy57L3m7XZZZpGR1cPMNdIb4n/M15v2s3uabD+y2qw5xvzz65NeLhH4Z9Mi6i+HTyZe7fnYt1/niNxhRV7Y3BmF87YFCJiHGT8LBOgLjMFANEIeGhtOxrfQMwPzLDoM4yCACorU7I991pkvywa+lvVK/XkEBPWpllt1ch30fe13qKe6kSHua5OCxjp4XlN+ZWL0ok6Zr8MVv/oJ29KrTv8W2x76dC+6XQfsc360vu+CVNJiiRJpOOyCSU0uwkJPG20PsJO/583lj0GLaiqj0AnXGHNioRB+XacCC7gg/HVmVv88v0e/1yLhYB4vP9enqbXwKYBw0QywYIB7AyKhGnb1mImL7EX1Zl96aLAFG89dfDpdZAJjuwFYixotu+EAJCmXwl9mp328NhXasRFzLZe4pfT3b7xeIP2q/y6zqEUPp2t++n/PqiclHrHV/sbvuHYd2RAFEc8outkkl5Gi2HlElSNCwUZ4SfuezT++jTKx3JSG8XOrSUhJWiaLIUDSp1chYZmkroc9pJWwBgIggRh0ZCRD048leW9swtRMzCSVz6qFs/P6wTIgKzQYAItI4QcfqqhIgSIIpNtzhbEqt/+8QThisqC/JmLft/3D8h5Ut/3C+LxAGepUGihogivr9WIFYJEZUGl/oc+pz2sZbOdHyvu198HzuDsdwuXuL22XVxa9iWEFpfczx+ft7+28O+olmUx2Rv+F4OTuB7ASaAEHGIGC+hfYsQUU9S/g+/7NI54f/4rg7+j7NnhRV39iIhIoD5IUQEWkeIOH3LQkRLQ8QsC+MCBhIcxiGi3S4KGO3XJnzsyLIQUWkFooaG8fY6IaINCOOu1xoaxiGiBohCy0QlyC4KFu3r0+9RK2dtiCmKtvVxeeP727H/rw/rl5n7XRn2XZPzWCEh4nlhveg+ADrDmIhDJH8R07+KoVkSHkqbcgWiHIj1YLzlSteu96sA5kfCQwJEoFUSIEqQiOmqE95tZO6UMwoQhQ0DZT3eVnqb3afsbXp73j6Rtw8VSTdm2yQ8zKt8lLBQA0MRb0sgKMGdbZbcrqGhXY9JSGirDVXR/vjrjJVWIO51TUNLIT34dCgwZfftcUtpsh1fH13t1qWtSoJNrZBUU5w5GshBJeIQ6Qecjtlxw0QOAH3J/rNfpt/i1mfQjVnfP/YvdTJItUh/wC8BAEDjqEacvr7DOFutqPL2iXi/3f6c73Wd/D0zjuHvh7EPX5kz9uH73G03hPV3mtt/LDzmZ3Ie8+Xhts/l3IaJsdWGbYmrIDUstHMJ2H0SIAqZFUivq/X6SANErcD8T2F5qOLrz+tirQHiDr/YuoanlyEmhhBxyC4NHziEiOuxISIAAEBLCBHnoSxITL81S7LfDQldibiqMS8YFFXDQRXvL3ut4tPhpWrG8udhqdnK96VPT96cfXKxrff5NRMK/kQICn8yCgqfG/bL47ZCxCxcdqbhi+okK+nv+aWV/Tv3z2G/nv6oX2LeNBSsGvRVodfbdUPEMvE1fFyd2EaYuDN8jaPkBmgf3ZmHTD54ZHwJyqLXI+EhASIAAAAapjMyqyoBopBwz7ZY0f5l4nAytuz2Ov5N9snFCEwSLn6XW5emTgtNirKeYvZvyV7s/gmxpIaJMvmfTgCYHHBNo0xDJk35aGhl5H52pmYgj1xvS5PwsKlwUp9TSWjYZhWiBohARwgRx+R89wEhDQAAAED/TkmS9GXZogJRm0qv2h4wNhHg5T2HDSNt8FgUQtrneGr69EX76tBe49qr3ct+fWjiTW7fW12TCkRbhVibVCBqFWIl+1zb7b6RMKa5kjkDZbjJz4TrorLAUG/7UmhKg8iiMPLzbr80+Rr6dYBVXO7eP9LiMDEep1GUvZer0rEgxY1uKQ1okPsUpzvzaGiAeFuLf8kAAADASujOPH15wdxWNWKYR+V9/ylNvmmdsM2Iv54GgEUBYV3yfPa58rbFh7JPbk3Ae3ZD39tSiy7NInxlHdNcwkDtW/1kd12kocsZ0TWSDWN00srHhfvY8PA5bp8EhuIJ4Xbd1m9aydcTGizqtrCvo+g1qWW3z1VZl+U2ujN3QQJEcV30uvPGsW/ifSE/px8J6+qSkf3MMGiEiGNyTvhQuYsPAQBAg/TEXGY+5A9VwMoIEaevKLyTIDG7d3uVna3461vh664YIn48dEnWsRE1W7NjJ4o3hvu9dPFvsjUZy3u6Ch7r0CAxL0S0bCVilRBRA8u4N7YNhvS+GoYqmQU6z33h/kW3T0UcFNrtsYaIXdNJbh51jfAQLSBEHBMJEcNfOLnIAwA0hhARaAxB4rRpwCZdmLM/qNM1txoN7eLQr6lAcuv1L3m++H4aIj4zffpiFmcbImoO9sPuNg0Rdd/Drn3Mryb7w1K6RouNcN/NOGBcTMASprhNJQkZgLzQsIh2my4LEYUEiXGIqI95eXTfOETUEFLpc+dVsulrt68nL4z8QLjfWeG2eLsrBIfr6WKmbMwaIeIY7AsfBAfcBwFdmgEAfdobjkMHOQ4BeQgRp20rXPs6dwm1022bIDGvGrFNEvDZsLGpoLGut4QwUEJE9fqwLy9EFIsgMfvr5BuTLy22/9AGiTqLs9iayVkfLQMiOunb/TKPTtSy+MuYk/5rvxyDu8Mxts0QUSsl40C0KES0bKB4e7j9dW6fXS9ya7jPBSX3ETY4vD6sX7bkMXNW9ecKNIQQcQxsiAgAQBd2hWOPOGKOP4SIQClCxBnQz0HtIaTVZDuSrRBxETI62Z+E7QoBX1x92AT9uvFz9xU4aqVieYiovz+73Au1IeIpfn2x/+1u3w+F7SD9Bb/cFiIe9Kvp77n9OvOzCs9XFkhOUZ2qSmHDxGUhoorDRA0DJcCMw654yC6dbfio245DxCph5dxoiKjlwVKBSLCIFhEijs3u8IFwmA8EAEALbHiobIgIoBQh4gxI6CFVXXGI6EhouDXRimZecY9cKQxYUiQQdycWdl/VwLEoRBRy238Pod6Xh5ds7//FkN+dbAM+51PhMTKrcys0REyf5pdKw0EJBEVRiKiyf+7+WRYiyu1asSjB5Pf4de1OrdJfCSsoVRTylVUUloWIsWVhpQ3PdFZiHRcw3lZ5E5yMkf3ZEyKiRYSIY6Mhop6UMD4EAKBJGiI2HRzaCkaqGTFhhIjTJwFb+rpwCSXVP3asuT/9n5Lkpf8jbERsmFgUMMaW9ESywaIV788LEYvIY+L7232fDuGi0CDxHSFY/G63/e6w/pq2QsYmZV/r/qkQIoo4SNzqYv3isDzkF+lv+eVYZB/wy/Qsv+xbWYioisLKdUJEYYPEolmVh8oGrFRqokUnhSXGQioQqUIEALRFwkMqDwGgOumi6ZpUIT43dM9duMd9lkpbkXSNXgR3UrUYmmzbJuFeHCCKeL9u22bF22XyKhDvCi32+OyTizZY6Qdde7tvi+2wLoFh7erDPWHpZM/ybbH+tb7Z9ezFvi32mfW2SZXnVnfxHklQqGFhTMLDsgBRSEiWF5RJeKjVdxIW2sAw3lZVKxBlrEYdr3Fo7nSvS/8wAbSMSsSxYFzEYjvCz+YYPxsAANAvKhEnTrtehkK17PY0Sb/VXE7puGRi1QAxnPdvja+o3aODoslbJAhchI5hPVZ2W11xl2YZ61B7dR8Oy/e42zRADLV+x2diXkyestu10CdcwrwxW3SddnQSFw0Q04+59RAgyveo61uzT/+x2xcCxMV6qG5M7/HL7Nv8MrZqtWP218kbki8l+8Lm9/VVLVql2nAotFLxN/xikD0BJUQUtrKZakS0hBBx6PQD9vl+QYiYIy9EJFgEAAA9IUicMBsi2sBQaA9YmZLY0v065tuqTFGBBoJFbKC4TBwqrhI2FoWITwkhosSF4sQQUUkV32l+Nb3N3f6zfl3jrvRb/HIqbHBoVQ0RhQaJW2M9arfsH3f7vj+sn1hN+Qb3f9J6iGhDwrji0O4bS4io459eUfJ6bw7fk0xsUqTt8Rfp0owOECIOnf2AJRirjp8VAMzHheEz/xY+8zEMhIjTFIdytgIx+930+DiJEiJqcChBo64vIyGjhpSiZuhoX19RiFh3v1UnVFQaIn66KKzSir3CEFHIbMzf6/aZsfvuNj+nl8/ss1+DxaUhYhij0Xlf8u/C2vERHE9OLnL3DZPUiK3nCf1itYv3KqYUIoprw+uVEPHesP6S6LXXCRH/lXaf/1G/XCa+ts0bv5rJVNARQsQxIRhbTVuTBAAAhoEQEQNDiDhNy0I28X3u6urXJDCzM87aYHBd61YzBvH3UjVE/IsQCn51CAV/NWy3UtG2FSTmhIgS5Gh12JnuZ3Jf+BnLuor3fSZsPzn6GX4p7H+c2/9AWD8jus8YbU38kh8iWosZuOMQceEcv5Cffx7txq22unO/zS/t48YWHBYpChHLxNfx+t5uI0SUMVrF3MJ1dIYQEdMnH7I6EEtDJ14AAABFCBGnaVnI9lZ3ZXXQLRchYl1x0FgUPsr+/Wa/jruo+9aYyCWP/Z5t0KhViTIrs/be/kHzfb86hIs6cfVWN+amLAsRdVvEIaJ2Q9egUENEoS/Yhoh6u/bXjkPIkfpC+D8SixDR2pqles0QUbusS3f0vIpEG+Auo+P+ndvDz3/dALTpYqC82akJEdERQkRMT950/PavwQAAAC0iRJymKiHiD+eEZXHwVkteuGhDRHHP8TES05f5S7vsD9yLMVb62k782uuEiJeHdR0jUaoVZexEIWGreE9ylnuyvwlbDcqrTFRF1YYSaFUJEcWTvpAkD53s10cSKlZ6H14avtcbGvqesv/sl2Uh4jeE7bKx/7M/88vffeI4Q8Sm5YWIQEcIETE9ff6VCgAAzB4h4jRpCLOuVQO9LSuEiJZ8fRsoVQqXVvD7ITAsChGlIFBzuQ9LAJlpHCnjIzpthIvr0mpGGyIqCRNtl+kPhPWzhnFNov/PX3RvjceHBCD+P2+8e7oN34qCODNhUKG87tHW58NzPME9h10X2X/zy/Sr/FKMvdu6hojS2+45I/0eMFqEiBi/eFwKQkQAANAzgsRpaiNIbCPEK3udOgFMdnu6LUQs0nS4qL4xOz6jc26IuNUv8+KwDHGkdpkdChscFoWIdl0DLKl61G+xwzDL/n8PIkTME9+3yRBRJ0m50LVlP/eWhgkoVLX3nLyfwjxEWyk93ZfRkZPCEpgOCQ8JEAEAANCgKmGbbVa8Lc+lTeXtW1XRa8lbt/vyNPWaYn+YPn0RHi4CRJGeFtqSCkSZAEQmWdGJVmT8Ph3DT2YlXsxM3CEJDKXF63VJ115p0hVbu2NLsYQWTAgJKTWoFPa+FXx7CAnFX+YUq0p42EiAKCGgNAkBq4SGy0h4WBQgCgkMNTS060LCQ1uFqOoGt+e770daHqmmvDq0LkgYLRWIkrvr2KBAR6hExPQwSycAIM+V4fhwDccHtI9KxOmpE6RJMKf3tyFd1eewj1fxvmXh36rKXmPR99LWa8m1mEX4Sr8uMzVrgJi+3a2HADH9Fbf+Q2H9F/xy6HTsxUN+sRjPMe5xZSsdhQSIGiJJKBZ30/182H7C8S7vSkLExSzb8jW+NexsIvATdaoOx0IDxNtyvicJEc9zy2/zm613Ydf3hU6kPZAu85gHQkRMh5abh0nACBEBANvYEFGrBa4Kxwrt3nRFT8eO+EKxSbZqxZKLUHOBiWYRIk5TWcBWR17oFody8deK9+XdR6wb6Olz6vPkvQ5R9lri+6z7mlayboiY/Qu/TH/aL4fKBoc1QkSx+H9pI0Scqy7GWvxo+BrSHb6NcwZgidS9wwkRMU57woHwUDgp2R+27+nhJAUAMC5Xh2PGVeGYcW3YviJsXx+2L+vomHJv+HovaeHrfSY8t7UjLIVWMjyO42eTNjZOTzY3HwxbmIzzP5lkv57TD9RJTzojyR57IGzVI48VRY/X24Xep+rXs/eLv4593mXyHlP0WuKvs+l+ZDL+oQzfphMgvymNvnYWRkhMB9I/MwvVjiK9xm1Lqdm+sH2VX46I/f9R6ZOiKOCoOw7cHo4ZrwvHBLt9a1i/YCLHi0vD93NDQ9/PA+H5zmjx5/PR8DXUcybyf4HRYExETIeEh1L+vyv6YAUAICbhoQaIQsJDaRIeaoDYBQkPpUl42EaAmMcGiHmyj/oGoJbckOakMyoFdfLYvMcre7t9zvj5876Wfd68r5O3L0/8tYTdl/e18x4jXura+zL/NZ/rltIGR4LDMtl3RO1C3wYm/v+V4LDo/6UyDRNlqetjI8d6ncOniuxW36z73HNIUxIeNhEgZrf7lkdCQ2nyB0BpHxjpzx+jRYiI8ZIKRK1CBABgHVKJqNWIqqsqxFVJxYNWPVT1ZPM9PcGtS5MKRKoQgWpue3qSfmf1jlx5AZ0GOHkhzrJgR58vfl77fKs8r9Dni5/732QPLFoV9nVYZ6dnJK907ftcO6EC0ZFQ8fXJ37kn2OlewA7Xjvkm+gznJEjUMDG9w7WrfFsmuz60G33Lk13qW8eyh9Lj/79SeRiTikOtQhR/HppYVoFYFCre7PZJixXtb8uN7mtJs1apQsx2+QbMEN2ZMV07wwEi7+AIAIBluzPbrsz2YuOSFY4nd4bHn9vCsWjVblNfMt8T4WGr6NI8PRK+nBAi3ibjAVYL2SwJ2+LH2X0axlV57rzHFbHPF38N+zxCtt8RAkTNkX4yJwRc1+vD1/g1eW4JERfTzoauw8lev0hvcbdd69eT54elk77O7Q9VW7LeFw06F6/zer+upd/pJW7fxWH9Jr/cChDDmBLpdX7Zkvh9tPi/1+slUXTNFA/3UUYDxDhs1KDwIrM/Dg/tbW25O3zNl6/5tTRATLVzfke0KzNdmNEjQkRMz47w4apjPBEiAgDq6CJEXDYGonaPOrOBY9jnw3PpcTFGkNgaQsTpkSAmL0S0bCCn4gCnCvt4VfV58sLAMvFrtts2RPwHrkm8J3S6kt9uIVRcyDQ8POiXYlmIqBb77gwbQXpuWOlJlRAxu/z4utgal1FGk3QkoKzB/j/a98P3pSGwjYsuqoSKTSkKEeMxi1XR+IUXmue5Jec1Z/f5ZXpmcyFi1+Rc4rfCurxFCBHRI0JEjJeGhcfch6g9ANr9AAA0Ja+Soi4ND1XVELFO9YGGhtJVWRAi9oYQcXq2QpkQJNpJVmxQUzW0E3HAk6fs+ZY9tsiy15hHxjG0IeJ+18J0KMnPaJio3ZBTX4X3XSGEfGdbYaOoEiJuoxWCL/fLoagSIm517dbvIYSSQisg08sWC/t+zHufbE2skhciWl0WZTQRIl4e9l3ntjVEVBImjo0NEZuaBAZYESEixisOEcNxNDnCBysAoAVdhoixVUJECQ0lICwLEQkQW0WIOB1xAGNDxK3KxCXdmpsKAm0gVPSc9vmKAqQiZa8z9ubsgeIQUUiQmIUun2nOGHKZjIbopO/1yzZtCxX1NV3klyK7O6wEQwsYVZUQUUiQqKFk8vwky74trG93wv93XpDYZYjYBBsiChskSogY355nT7iPHYN/X9h3gGMn5osQEdNxTvhQvyt8qFORCABo2+3hWGMHoW+SDQ+XjYGoYaHSENGOgShO+oJfps/xS7SGEHE6SsNBEyIm5/vfN1uhGKsa0tmgcFkIWCf4E6XfT3iu+D61voatRoxDxMX2OX49OS0sHRskauDXVhfk7Ga/PCFEDBV/yW7XtEIhSF/il9m9fqnbQ2OrEbPLkywEiWn6W0ny669Jsu/w783F/6f+HE57lV8+/Fm3/kS/PqbgUCevkbEnq1g3RAw97ZObzG12KBRgwggRMR0aIuqx/2NhSYgIAGhLHCI2PZFK1RDRBojajVnEAaIgROwMIeJ0FIVuJwRrIUTUcRKXhX+iTjhX5fm+6K7wTg5VgXr/vK8R35a3/Yfuub4xXC3qfunSLP7UNa1CzJtxuZANEWW8w0U14ov9dqLVipLSaKVdhxWBNlzUsFDFIeKCe43p14X14dj6v3xStpiNWS3+D3d+cmtfmt61WG4LEaVSL65GHHqgaEPEvIB4HXvDz+Kg+RlcHPZJiKi9FPSXgRARE0eIiOnQD/Br/GLbX43U/nCfe/hwBwC0oM3ZmMtoiGgDRBGHiHRf7hQh4nRoKFMmL6hTVR5vlT1XbNlzSxAo4jCwCgkMy0LERxdrSfLDIUR8dbhN/6b/4arh4la3W5319gq3TyoDQ6XiQ089HtIMYVKJrSAxqlZUNljMPuqXHf7hxoaIYis0jEJEccL7Yd3uzNmtfple4Jdd0gBRVA0Ri8ZgFBIWHgjrNkS0mhjqBBgRQkRMR9FMlvYvwoSIAICuLZuJuQl5IaINEKk+7A1B4nTUDQJVUWjXRrAYP6c8RkM/DQPV50KO9PdSfx8dyfCVNaoK3xKeW0PEbw/bhxb/Hg8TP5eE55Svme0L65rOlMj+xC8lRBQSJEqIqJ9vOnHzWW7fsiEf2qCvL9ZziJjHvjdshWJhiLhq9aGGiFuVpK/zy3XsDq/p8JLX1EaIKGy3ZdHHew0YCEJETIOeSMgZS1mICABjUfWEGcNQVoHYRYiYR4+NGiAKQsTOESJOR17oJwFM1TDQ3jcvEFz2PPHXynuOMvHza4gYRixcLCVI1G0NAOt0Va4WIj7fr0uX5fQ3wvoSnwmfZ08On6NlIaIaSsCzCBH1JyFjLTr6WWzHV9TvqYWK8bz31tbMzOLhN7gdd4SNhtjvTcPWuOu3TniybMbksnOiKuMh3hoef0HBz7ZuLwJCRMwYISLGJ+8Aa/cV/cUIAMaEEHFcuujGHF9ELxOHiASIvSBEnIaigK8oyFsWCFpVnyMOEZU+Xm+rGy7+RQj+JDz8pvSM5B1hW2Ov7wjLq8JSA8LNGuHiNjZEFBIkZleHdf0qKyoKEm3oo72XRFx80JatmZ8rhIhCrmmKhqlYgX1v2PeQBolPeThNPn1aiAWaGv9wlRBRf07xOJhFjxcaIuo7Ng1jW+lxWefwuc21ZSGiJuhVuiYXTaRCwIiJI0TE+MgB9qTP+nX7VyudWCUcmwkRAQCTUhYixhebBIiDQYg4DXnhnVUW3G0LbQqCQGtZCBg/Pu85lz1HVW/OHsgNEbXrc+UxD/Nk4ZltiJg8yy/WnRQjDnJ0W8dVtCRILBoWqWu2MCL+XNdtpfsrvnZ9j2zrymyrEVWfk6jkTWIi7M+iMJC8Mqw4EiTaUFZUqfCsM74hISJmihAR45R38NAQ8S7zgU0lDwCgD6t2YbazMdehF1in+MW2LsyCELE3hIjTUCX4s/cpC/GWPVesbqio7GtqKlRULwzVimKry3IIFJ8RbvtE3YBxESTqh5hOsHKRD4O0QmzdYMYGbsvWVd/BoloWIurE1ir8wSl+f6TpLUly2veErYjMY9PUddO+8LoO1Hi+yiHiTX5b3y/pdT68O/3f+O1kj1889qpq4SGAyggRMU5lJe12MGBCRABAU24Px5TXVTimLAsR7QWrtWqIKGzVBeMgDgYh4jQsC/7iEFFVDe/Knn/VEDFPk8GiBolxiJhsXV1Kd+UweUpaMItxLLs2rOSEiFpF+ILw+Xb/yX7ZdMhnQ0QN5iSQG3qFmVarq/Cas6f5qkPrhArEMAn2Qp8hYlXZpWFFSJDo/qMeDMGo/P/oBCtxRav9vx1KOAyMDCEixsuW+4sdYVv/gNlnKT4AYHqqhohFAeIHwn6ZACAvRFwnQBTxcRGDQIg4DVUCwnWCQMs+jw39VJXnWvYc1idCxqTFfmev00VZnBAinufao7LDvZj3+uUq9HMzDhGtJoIh+/lsh5GIQ0Td1qBxiJ+94TXGQeIiRJThCHVkKA0RNUDcE763QxW+pzbDwiLbQkS10y90TMQ8NkRUhIlALYSIGC9bjagBojjGgQAA0IGiyVSWhYhakCOzitpB3vNCxKIxl4Tt3rWtq5fMBOpQgTgYBInTkBfEFQV6ZaFdnRCwSgD4zBqhX95zyXM8I1wRbrr1tUPEWCYzW5gQMQsTqiQXuvZSvyqTb6wiDoVs5aANAO0fcZqSFyLaP+bEoWOPn832/32rClGDQ53zRckxqChEtAGrhoeqtxBRK0jCwbUsRLTs96KWvU/yhs8CZuaksATGQS6S4vFALAJEAMAqZDB1HVC9K/EskXLhVlaFqMfA+Dhot/UiVci63QbQCBsCSjgTNyH30RYreoxlH5v3HOLTqY9N9PFlz6f0eW2zIaT0GP59M97hj7l1bStL73Ltvb5tI8Giu006RGe3+laXDYCqVJRJsKfh3rokHJQmgWGdKkQJN6UYQgsi2qZDPQU6qcoWGR1K2rPfnyQyKbIMB/Vv3VKahIkaKBb5Jde6DBBFekNYMSQ8jAPEW91rl5ZH3i9V3jMAtiFExHhk9yXJqWFWZiEViDomooSHBIgAgNjV7uJBmrrWrUsTUuWnlX6xogsPu18qEOMqxDJytZ83LJhUIGoVYkwqEMuqEO/wiwW7DqBxGrotY8M8aTawK3p8/BhLt6s8j4qfY5mi55QOotKkq/PrQ5D4Rrd8bmgrSQ/6lie717cT1kv+KGLDIKk6lBavS2VZXnWZhopNhYs2UNSQUUkF4rYqRPeTle9JKuLyutn2QYr6pEklfd6YvvZnLcMOSoBoSSWfVvOJu926tKbIjN46q/eiu7xWtd4WljXk/dyL3icAthAiYnx0JjIAAJpykTu2SIvJOIjSikLFPHLhJRdh9kIqfuwq1Q9y/JP2cNgWMtSY0ADx108+fqF6wgUrgKbYMK8ogLNsOFj1sfYxeZ6anrFo+vj4eeSx/z3zrex5rFe655NWlc7EvJL0qtAuON62ORaaoUFiWai4Lg0U44lKmiLBpp0cUj6/pVWp+luBrTyUrswnTKoi48hLe/7ZYYchxaLS8l6bHMfqhm5xqCjDgujQIGWkC3wmf4WL/1r2536R6vQ+Ean4j6v+s9N8W4V0Y6YrM2bOfaIwJiJGxo5vAgDAqsrGGxQ6kYrQ69gwbvtCURWijokoQaJeXEmIqAUTok6IaMdospUy9hpIh4TSWZnfdXKSvDasEyT2jjER56dqaGeDP32M7rPPIfvs7fF9Y3r750J+9OXRFd8Xw/6TawSGllYhSr70ieTLFutJsicswyCBRdWGVWVhsL5U+tg6GhrKZ5qs/1WYWEWHgWhqcin5nNWZoPWz2o6fZ9eboNXxN/lFpclMarDvI7UIEu0klNrlWcd3FPI6pGuz0GPMuq9NA8SXh+exAWJZZf9iHM1Dfl3fZ/L+yi53K+HgGs/EXGQrQNQA0n7TAJYhRMT4ZDKVmJPqdGIAAKwgDhFvDNsSFErlgg0RhV5EKXvBYydTKZpYZVW2olGvdWyAeGoICx9zF9QaIlq/6/bX6XaNxhEizlteiGMtCwKFDQ4tfazeVvRcwj5eQsQw1Uny99IzkveFUPCb3PpbwvoPVw0YM03cJNyRajH5EA0BYggrW6HDQDz7I3752PPcZ+DH/fqqE7WoOCjMCxFVU2FiS3LfN0Uh4vP9YlHxXhYY7g/3v6eB7z1vkrK8fXpMfu1XuH9kwEYVDs5VQ0SVHUmS+/+HX5f/w6ZCaGDiCBExLjoGlIyNSIgIAIhdGY4T10QXAVrpIeFbXlWh0Ctq2a/3sWHd60ouLBoIDgtDAK3Af9K3+2V6YPtkKhoi2upDDRQlQBSEiL0iRISVF+qoshBQxI+NQ0RRJUiU+0g3Z2FDROkUqiMm/OAqVYrZbvdPFCJmF/t1/WBNb/HLpkjF4v3P8+svyAkRdVxF3acTmtguxXXlBYm2anwIdn7yhElUFu+NaKKVRZhYNtPyxeG2m8y+JkPEPEUh4mv/J90IyyC9xC916JC4C3MRGw4TIgKVECJi+Gz3Zb1oYlxEAECedUJEGRNRL0D0PkKDxLIQcUV5YcIJAYAeB91ryp6WJumxcOpmKyPjCkQJEWXSU0GAOAgEicizTqBo5YWLNjCs6h3ZA4sQUWsL35SekXx7CBglHhRvrRsuxiGilFSn17n9V7r1/X5Xeq5friquHFQaDC0qFKOZrdYJEZX9ujZE1BBMq8f7CBbrhIgaFMY90CVMzAsRO6DjbX4ivN/0ffibyePcNxJ+sNmNfikhYiYzvYT/4xPG1wTQFEJEDB9jIAIA1qVdl+PZkSWIy5tQRdwcHlN0ewPshf/i4k4rGr/+uUnyJ3/p1+VaSV+3ff15IaKEh0pCRALEwSBExDJlgaJVFgoue46qgeKbQ2CjIaLMzrxvsceHiK8It7+ndqAoY9g5eSFidufx9abY6rK4GMFWJDZRnWjZEFGDRGVnbG77OicKEqUbs25vm2BFJzzOG8bSViV2KC9EtC/vL2X/tv/DghAx71jewfEdmCpCRIwDFYgAgHUUjX+oQdxQLiSqhogyQaXOzKzfgwSJMuGAXrwKQsTBIEREVVWCwLIqQ3tb3nPJeIh1J1T5xuyB3BBRprrQ7s+fkwlW0rjEu4ZFiBhKvx96pl/qpLtNVPJVDRHtBC5NsBNiiaIQsaiaclVxgCjvFbNPtxcGGCIKO1an0Al9xAkhosqi8fPrhIh6bnBJf98z5kPOC8aIEBHjwBgVAIB1jCVEtPTiUtkqRGErERXHycEiRMSqbBCooWFZiFhEH6Mh4ocyX2EoXlkzVFRSLSYh4ueki6mQbqaLmXRFKMFLdWyFCnT8wjhEVFrVZ4O4JuSFiGoxG3Q0U/S69oTPdzt5iU4c0tTQGTYwLKpAFBogChsiajrc8GzRVen79Q/dy9YQsZTO/Pyyz/rlKuPn2xCRQHEUxhrEibGeExAiYhwkRNTBWejWDABYV1GIWHdQ9rbI2Fo6AFkcHqo4RCRAHDRCRDQpDhElEBQvDFd2VcJFfYzmdLr8wVUCRZnpVmwLEWWq3/BBte5kKjreoA0RtcJP1tuY1MRWJC5CRPeh/FAYMmLd65EuQsTAhtDWCWGi0Bmb7UQrPVUi6ut+pc8+k/e8y71e+dlkOkFPdHDUEPHl0euN/4hYVRwi2udZ9TkHbKxhHMfV7hEiYhy0+4EcMwgRAQDr0q5Maogholwsx92YNTiUmaSpRBwVQkQ0KQ4R46BI9v9FCAm/uiAULAoRP+aaRIJaiPabK1YpJpmUuOkHlf5VRJZaofg6v1xVHCK2VaWoJFS0IWJRN+WBDMOU954QW+8dDREl89UKRA0RZTIV3WdDxCbHErw8PNd15c+1Nf7mthDxaYt9Sarv0ogNAG3gd2lYv2GF178sRHRfc+OXzg4b48PxCVURImKY4oGVGRMRANAkGyLmXQxpRYhe//YxtqB2Z36S+9qPRK9HQkTxXtfO8asLhIiDRYiINtnASMMiCRElDNQ5kat2Wf6x8DiJZ1662JMkN7n2YXl8FroG1R37cDGJipAQUR+7yz1PQ92DRdeh4khCRHk/2PUFHQtRSdGokEBRZ2E+L9xHf46yv4MQsagibvP9jyyWG2efum09z+YPvH+xjEO9zW8I+/+/s5PNs8L6B5oL/hZfl+7PmDhCRAxTG7OzAQBQVRwiihaCxO9yF+vvTH5gsf7G5JeStyZftVhPHvzLJDndfT0NDy33mh5/ku/f9cVVK4TQC4JEdE0mptAQUYLB73afGe8OlV0yP9MvLvkMeUu4r4aIjw/bX0zc40I309qyW8NKSK4efKpfagjXRFBlQ0QlJZbqJS0GPRoiqh7CxDiIe/8fb4Y199+WynQ4zmnP80uhIWKw8aWzk80zfMimP0cN22wQ14YTPiMzW5L/LL+a5s0As8T54f/ltvD/IdWWQkPTPBeG+9xScJ9rw+1XrPh/fE54/F3dv0eAVREiYnjyZtkCAKAvOtvxuiHiR8PzPOf48+SGiI+EWZlP/Qq/1LLDRz7nl4SIo0WIiL68I4R/GiJKgCgkRHxjuE1mXV5GQsQ9Yf3DyVlhLYyBWGcCFaHn/EUhopBwa93ATysGbYhoFTx/UUXcGOjnTNylWeSOhSj/hVrhLuJxEG3YtU6X4FVoiJgec+s63qZTN0iMQ8QqloWI61o1RGyyIhSoiRARw5LdHlZ2u3cnISIAYEJyQsQtekHwT96dJI+8xq+fKveTGiJ3ZfdYCBDlIo+hPUaLEBFD8YbsAY3+EqlLC9OibI2L+IclgeILQ+h4Qoi4oIGPjymnEMQ1Ju7mnN3nl2qV2YSXWBoi2v+688Iyr6puKBVzNkQUq1Qkjpn8UVMnG5XTA0JE9IAQEcOiIaIMtKwH1hYOqAAADJJUzEg35gXthOg89rd+KVf6bY3vhdYRImIVow/iFjMbO3XGP7SVVnnrTVQoWve6542HeTyz5c9avdb5+if6ZUuzIMdB4laIKANeyri6SiZV0VmZe5qRuVCmg/9q3B3MOUSUCeCGMhkcZoUQEcP1pfChuGyQ+B3hfsf48ATQIB10XGcqBNpiJwMoChEfCSGikNkOCBJHiRCxP1TEVSMz4conj0Y1f5k8LqxpBVgYPC+16VOwVSWm9/kNv1yEiKHGMb3IL1elIWKsqYqs+8zz2xBR98u+sqryVWhwp2WgR5p5XhseSnCYPeSHwUjT2xbLhdP+17Di6Cw68p9/vl9deay/pmmIKF3ms0vD+g1+OWeEiOgBISKGa90QkXARwDoIEdEVO8Pn6c8NK3IZryGi9GEO64/8j+MhYlNjNaIzYw8RCeJmKNM4UQNCna1Ehh7SkRWXyG4OK46EiDrz/JNX/OwqChKFhIk6MdbrGvxsjEPEP/ebjXz+7oq+nxZCRGsRImp4KOc48vO6xq3HE9Hsd20oIaKlIeKCTrRyhV/Ohb7H9TSBEBEdIkTEcGT3+mX6Er9cFyEiAGDoZAZRoRdvEiI+9Jdbw4otnPrl7p9wpfC7/yNJvvULYf1kvyREHI0xh3CCIA7Hqw13h2WYZiW9zi/zaIioVYgaIt7jFwvyEbdOEGK7PGvAIvSztenZmPWzWzPWdT6HNURsKDyMLR0XUSoQf8qvJme513Ce+fnJfilclPESJWgUd7TzOivJrg0rOkvOzEJErTzUc4Qmg3KgotSdrRIiYhiyP/XL9H/2y6bsCgfOI8xgCaBjO8Pnz1E+f5Djo+H9IZWFtgJELg70AsEO/3SKazL8kw0Rz53ne2tjY9zf9+ZmfoUQMBrZa8OKztUcPsTS/9Mvq7jd/B7oZ90l7nf76rD/qjV+z/W5t0LE8Fx3hv3rfnZ+IDyPvm79OmeF59XbdTuPXKNoFntgzddTIHvMB//pSf4PGFvbNkTMO0c5L7z+OETU7/OXP+ue5AVho0PZ/x1WwiwwfbyGPt0a/l+0AvGidt43QBlCRAzHIkQMIxqnz/bLJjQVIu4Pz3MPH9YAcuQFhoSIKKMhooSDlq1CtGGidp/bF5ZPXu99NeYgbswhnPzcCRExGdmPhBVNl6Sb83e6/ff7zaohz43hdyIvRGwiVFQaIgoJEpsOFeMQUZ0Wls8xX6fDEFFsCw6Vnp/EP+PL3ba85h/ym4kOZbkVIr7RPeGvN/t/U4e+v5S+z6qEt2N3s/seZZQTIb8vQMcIETEc2V+FFUdCxN3hIHB4AB+O8mEtbnKNEBFAHgLDWSKIQ12EiJis7Nf90oaID4WZh9f5o4cGVaLJIFFnubWzMjdd3a2hlgRyOmKTFDZ02FPKBokiTW9xr+d7/IZmwELGQBQvD68pe5dfPnS2DxG16PTn3uiXfYaIKg6r9ee91c28p9fVFr0mJUREjwgRMRwaImoV4joh4roB5L3h8dr1QT+wKRkH5ouQsDUEcc594Xm0ykPYKkStXrF/cBNNVu6jE4SImI0v6XHTNQ0RbcVhHXFY1USwqF1DL3CPl2BRQ0XZVk1VKgobHOr6rX6xRQO8hsQBokjTn06S097kNzRElJ/h3fr6/CL5zve7f0KppAw3JdWJ4rrwGuNtter/cVP0/1XC4amGiFyTokeEiBieJsZGXDdErPoaLg5f5yY+yIHJG3iISBDXs/iPT3VpiHime7x2c9ZAUbsyy8WQvaDVC76GLzrRLkJEzIaGiI8zn1EaMGn1nw3s6rAhorVORZwNFZXuU6u+XsuGb/o5rloOEU/o0mzPafR1XegXyS1h+XOf8tdEcdXf0ENEDYWnUK2n3xNjIWIACBFRzQ794GrwAyvvxEK0NcFKHYvXICPdO+nL/DLPshAx72QEwGARxGFlTYWIyo6LqGMhxhUVhIijRIiIWYtDRJ2h+YY1PseKAkWxbjfbpkNErUCUoC4O31qUW5EYJlvZOpbc4RfJ1a7JcUdDxENh+a5/7Zfpz/nl0NUNMy8N91/nvdgWe01JNSJ6RoiIajREVE2EiRoinvQpv+wzNMyT/YFfloWIy+gHvl4Mvo4Pe0zf6IO4dSZIKbvfZ8Jt2qVrTAHQkMaonYp40H0ZBN4Eidnz0yRNf8Edg/5V2IOpIEQEDA1ulAQ464Q5eYHiukGiyCsMuD76WpdV+DodjoW4xZ2bZA+5y/7ICSGinI98Pqw/wa1rpaGGiOqODl97l4YQIl4ZXsM1Ja/Bhoh9V31ilggRUU8bFYlDqDwsU1QxWUf2D/wy/U9+CSxBRdzArBMibo1hd5dfpP/UL4eo6OJmDCFilRPvvuSd5Ech4ru/zl/gvSY9fatiZOsCD5NDkAhEbIBjg8V1Ap22AkUVh4hWlUCxC1GAuNWd+eGfcBu/7Ne1m/JrwyQ47/q4u+3rj4eIP/d+t/3aJDkvbE81RByConMZGxzaGagJEdEDQkT0L/sjv5SD1VDYYLOREDEcvFN+3bpEEIfe7An/f4fce3BbiBj6pQ61K5CGiCIOEu331KYLw9e5JXydqpUBbYWITXQbKjjJL+1ehkkjRARK5IWI61SJtTF+Yp5llYlDqkLUMFH+6BmHiOpd0lvssF+XEBH9kXMRmeFb6MQ3BIfoCSEi+rcIEUN/3yFUI+q4Vl8fBhFugoaIamRh4ljDOC7Q0Avt8nSVazZwy3QKRGNoYWIXIeKySoZVQ8S2tDz2kASJvx0OEa8OhwaCxOkjRARqssGiWPWYYANFGyJqANhEBaF9LnsMKTvGtuRXM//Hqu9LfjzJsp9arIttIaLK3uWXrz37eFB1oJvXiRI61Il2K9f/G0GQiB4QIqJ/W1U6R907suUQ8fzwIXxbyQfuuoPjF1hcMLzfH8g3zh7XBSIXOkAFGrLJgOQiHnw9+9+S5P/6Wb/+r0Y2OHld+8PP4p6cz9GyENGOxTQD7wgXdzq/ACHifBAiAitqKkyMabjYdHWihohX+MWWW8OyxXGRtdr919wV//edlm1VJG4FiOf4xeK6KNPxd9/rF1//Nr8kROxfPIa2/rFaZp8mREQPCBHRD9tFWEPE9Nl+WWKsFXFCLxaeES4aP5FykQhMyrJKPQ0R/9U/9NtpGDZhDOpWIZaFiGoxedUP+PU0dKWaQIj4XeEz/p0VPuM1RPxujgezQ4gIrKGsu7OqGy7aENFWEjYVLtoqRLXHtbLj5JriITO2wkMhFYhaXPEbH3f/hHGbNURUjOfePwkRQ6/yRUVr3iQ/QIcIEWdoCkHcmMShISEiMFMSIi4cDEtnLEFik+Mhbg3vcLdrUYg4AXVCRMwXISLQsDhEVKtUKhaFiNeG9SvWOBbKBGxhFKeuQ0SxCBJ1bL0Xh+UiRBSXJMk//R2/+svf65d5IWIWxrFPw7j2aI/2kAtDahMiYggIEVc0hiBu8wnvXyw3Pn/2Yql6P2n9TPj6T57+B58GhoLQEKihj8HH25Q9LaxIX+cb/KroO0SsOut0U7aC1Fvc9+5OP7IX+M0BhYh60UWXYrSJEBFomYaKp/hFcl0DxzkbIq4yXq6e2xxzTY67LR+Dt45nL8mS7N7QlTn9X5Lk2b+5WE8Om6+rQ43s8osX/rK//4fzrl/yQsQs9ChLdZgqNEJCRHm/CB0TUcdAIURET3oNEamIa1lZd7KuLxwtCRH1L3ATH/fKhoiCIBFYIu7uM/YQ8fLw/fzc3/fL5Plh+XBYfoc7Ev9fYb0lZZ/3XRwLtIuyOPVH/TL9f/2yJ2VBISEiukKQCLQoL0TUfU2Mo7jKRCw2RLTkGJyFPyo2OD58XImYviBc9u/1i60x4uUPna/9r379XT/h7vjLbt8/8NtF3Zmzf+uX6T/xS0LEdnwgvGdk/EMNEe04iC1P/gbkSTc2NnoLETlx6tgOPXC5D5k+Q0ShF5WnfsEvK4yHOGZ0YQZK2M+jyVUghr/Sp+Gv9tnL3D8aIIbp9dK/9st17As/t3gAdP3Ziq4/7z8avnaoaljo8A9Hrw6fu7+d87lLUIghIEQEOhaHiLK9aqViXogo+zQgzOvyHIeIWlSx27U/+pRflxAxC0Gi9FbI/llY/3m/rCgOEEX6G+6y/yq3okOTZL/ul8llrl2/WHthsn+x/HBy0WK51fc51fsGcYiIdmiIeJb7P9NuzDo7czz7N9ARujPPiYaIlgSKfaoxqcqYESICJeqEiGMJGTU8VFshoq0wkLPAkLCt2q1Zw0NVFCJ2GSDe576mXhiJ53TztZ/rPmcvDutvcp+1ZSEiMASEiEDPNER81G8urFOlWBQi6rH4Steu8atbHRNkwoy/lt4K5nyghRBxESCK7/x2v1y43C/S70weH46Z37/4N0l+UY+d2Xf6ZRwiol13hvfMue59JBOraHAobIgI9IAQcUxsJeGq4iCx6xBxJqFhjBARaMjoQkSdTs9xJ+nHQ8RzXNOrlve629YMEePw8Jyw/66Of076F3MpXNDqjjOafw0fD5+pzzSfqXGICAwdISIwEFqhaDXR5VnZXgFKQ0Q5fi/GTQ470j/wyxVlnwnhoRYQvjdL/v/27gfasrK87/jeYKhRq4SoDMgf/wWCrpBMRqcszSixAUkCMUmxhEh0rWZEVoIkqYY2EmMt4kpJMJZgS3DStYjTGipZCQ5NMJNYFiQuRGdhxkSE1uog4qCGYAsESZjd57ff97n3nT37nHvOvfuc8+6zv5+1nnv2OffOzBnmsP88+3met3qVz0N8iX3Vai46BzHle8Jj0jVxkR1L3x6eFS8edSytuyrMBt8rxvAkondzeCuz5iCup5Ue6NBh8RFDoaRhGvP0pO3wDhwRnyw/JQ7T5CEJRKADSh72otVZycMkgbhCg4h0Zv8pC91KtlhvAlF08aEB2540zIGqEFWJoce0IrED79I+tSqL44tjLQ637a/F7xTFF2wfq+QhCUQAwFSUMPRwSiymsRHqBlAVYkqr7Z4bNg8aa6KbjR7rVF64WiP0b18dEohSVZ+z+KP4LKpbmlfPV64t3lS8eKWVGQujCkSFU+43XUhF51fXZXTuh0Ehidgn8078qeLHq366NNAqRAADpQpExSFiEtGHl6/HubaP9lX6UqpAnHcVomhmj+jkVkPAO+I3Zd5dvNCedZyZBADANZOJbqOJRLU3q9jQKxBTHVb2eQKx/JdV8Y1ypWG54QP2A++xP1cViBrIaOFjVyJVIaolum22Yv0+qUKcj/S8SuNiROd93u0BLADtzBhNCUS/VtvXcjCdlioR3eEd/H49kFYiAhiY9O5++cvhUfxioeYzkNY5a0hJxJSvtLgo3s7s7TexnWqjC6poX+rny/ot97BPxRKgnRnoiWYCsS3JuBa1NCuBeEJ4WtxscWXYLN56ftzYwDmBnw/EJGW1vSy+8fzV+3kvilf8oaX5lvAk1UgiSroIWbqNOfNzq/vCw8r6fCymggWhEhGjdV3sMZDEYZNOB7ZQjQgMT119qLZlRaK+e689g2fa1kEXC80EYo78RHeD7i82F1+wAJaJEohKJALIXFt1orc5b48xjs9EVAJR4w8VZ1vcZiEzqOwrn3978Zzi9vhMIz+K4qctzi8+VxR/f/xqKHnYSCAqYfgTdu3yk/bzJA0XTCsy+zxEp+QhCUQsEElErK2LKkTxSsQBJRM3kCIA0GdX2v5O4So7QVesiK3MdX2d7Sl89cX1UPWhRw5UKpiudLnBKsRV3yq+ULyk2FMcZf+90j8AAIA5GNXq7LSApS9imW63USJRtDiGVkD2VZDXQ/OBP/KUcB5wxbHFT7ynLC4qttWhM40X/a/wYyvGtMJqleYjyvgkoWQiCcU50WrMipTamnVjtqObs8BGkETEaEoeajh+V3MRD3sixECo/U4HbqH1DsjQqbZvU8yUL7ASZw4dYq9FrEqs4iqJk8glYTiOqtk7q2gnaQgAyIgnFHdY7LTnacJwkvmJmmu3Mh9Ri65ZqI15veNNRMnEZMExV15QFS/+Z1XxYbse+fCBqijOshdfZ5He5NOolWTcyh/azypGzkXE7CmRqFPEdEEV0YIqClUpAgtAEhGTWW8i8TH7dYoBI4EIDJAGqCtG0q1kXTS8qn42ldxbmWd2l1x3tbZZvD4GAAAZ0QKY2+O2U3LxZ+K2Flz2NiUfVrhyA9GOcdWvxu0plc8NEf1hcWxxrcV/vrcoXvn8ZPkDJTd/IW6PoKOsAgt0un2OFKJVmR+wf7fr43kfbczIAElEjPdgY0e1kRWbtSrzQFZmViuAqhBZUAXI2F7bvylmTqfjGoTk09RHKNdx8ZBbRaJXH3a9amD5d3Fjd3wEACATSh4qlDDcYc8Vk7ii62P4XTGif7TwpKXsirHb/lxFKpnL+PHihUVRfXvxUrueoY15AbSQisITiSklEy+01xXNCkVgTkgiYm1KJDaTiZiIkokABqz8ZNzQknoW1Zkhyr+y535m74MPpqQqhjPWeVOn78qPxg0AADLXnKO4P8ZKV4F6m7uYARLPNb70lRBJEWJ1e8ugw1T1vXV8PCmA+JuYTMSCKJGoU8Rj7fOjCkRNdmG6CzJAEhHTmfb4NtABsP+QHIBJJAIDVG2K8fb4QpskeThpFWKObcw+APwOC2/PEnUfH9XRDajqO+zLRi+uAACYIa9IHCWOPlzxkT+wL0ogduWqYktxdrHl+WXxCotXvtRe+uTz6u+U26qi+p9lHSsLuYxa0KX8+xBYDC2iohCd+txt51eqQOy6ywNYJ5KImF6Xi60ssTSRCABBrBI4yDY7if98iLVo5WOF2pjb2pEWrctroUPo4GOoQsQS2bPngWLLlsz+PwawPqNWZH5W4zWfkVjfefPoxqerEG3Kn6rqaD1Yq0Oi7pJIkExcLCUSdeoTT3+oQkQuSCJicjoATltV6Be8Q1LpDt8aLQMAllu5P0TxazFcnI2olubiHovb9GJRfPWZIcbZnuHNm5uS96Q75H6iq9YbxUbE1qpVVCICAHpgVEXih+KjcngXh82VpUzUkbCO2cjVo1+to1Z+vii+VBS/ZJchq0uQnVpUdzSvS2LSsl4J+mz7TX4vPEd+9sbgFAgZIYmI6U06I/FJu7gceNm1qhGpSAQG7sAjFu+PT5pViHJFfGyhxGEzebhjg8m5WdDJrd8hP6XL92e/afXdcVset+fcpAEAZMiTh2lFosYfq6BCx8jLLbTarry661ZmOzzu+aqdb4RhKXeGl4ri5D8pyl1JaeKdI47Rapf1FYARLPK/yUP25yqADJFExGR0INTB75sTXBw+Zj+rcE/r8oKyB8p4oOZCF0D5zKL4gD0qVpZrbLY02+n+Md9v8cPxeQtPJOaYQEy7sHx2TxdW2qpUAs8gIABA5ka1M0tamfjqJ+JGMiCxCisjT6t8+jF1rEiu7n/pSLsmUUbxx/5L8YufLOuoDny1qKr/GKoQq6/ZN8+y7TfWP48MnWOhRVV8JWZ1fFzd0XkWsE4kETGZ5iDgSRxuOzvFQH1b8QCLqgBD8zY7sVO0usXiHTGcr9BsmrOIcmxfblJuT4UUOqk9bVb7ey/hAACgJ5otzSfaMf27nwhRU3ZIlOVLFlpbp7+0a45PfH/Y/m9fDL/jax4OBQ3nFz874k84I4ZRokqBVYv8b5IuTOcViRfaazrn6raAFZgaSUR0TxeVAy8aOa54IE0NABiwb3urncS/NayOGNxuoRlIu2PYqX09P3ENOVYhNqmVudN2ZqESEQDQQ6pKVPZuX8tx8cARFt8Vn3To7+yU4qeq4l7bVBwXE4nyW5V977Bj6kAPKJHop4pARmyvckwyJAGItsY7HqPmZozyQPx1yqANuArxuOqrK3f8mIkI9NitcZ92+gb3Z/V4A+0YfZL6Pgu1N2tPEcu8RyUSc21l9kVVlN/zBbS6rEZcWVTF96Y+CJ6VIrFctDqzVmkG0HOjWpm9suDnLX45ViIqieiHt40uRJbQXMTy31XFcR8tiy/Hq/yy3FlUf3tB2H421yXZ88pDDbb06Te69yyd36gFpkclIg7lCcSN8IPiEFVlcX/BDh5YWifZPlKhFesVk6hnpb7KYmeMGy1EVxYtO8y2BVVyp2TiXV2/Z7UxD22JfwyNEohKJAJYQt7S/KUnVhOIcliy7UUYXdhslyI3rSYQ5YniguIfvrMofsUCPaARMYoUFYnICElEjOZViBfbgU0xCd1J02B9lqFnZWZgGagCcaNViGN5ecKIOy9pIjHnpOLM5iEqM6l2ZtEZtW1XzEcEAPTcZ5JKxI5o0ZSmPavdzOgTXUtvtdAcRAWQEZKIOJSSh6PamDUUWIFDqIVZUVcc+QrNAJbPvbZ/VGi1+klWrHdaCbGmnpRzLfxui1qMQptRLymnd4cdF/S4eYr/HgAALDtvcX7+EeHRKYGoUAFGh+3Mks481FzEI4q9dfw6xQ39MC65fKV9nhTAApVFsYlsByZ3YrzDtS85CD0UXztq2Aem46r9xf3FC8OT8rHwCACp6pS4sa0oPv/usPndXw6PpW45N2wfscL7jkz2tzfF9+cFlad1+L6q77MvseqwvNuex/ue5YHwCCyRLVueV+zZ85X4DEBvPXXEcftxOz7ekhwz00TRWd0cO6s7wmzl8rRNRXUgbH/YrvbPV31Dude+nFm/hsz5tbXoc+ITcN5pn5Mr4/cuzeQ8EINEJSKm43fNmtRldqrt1BQDdX+5yb6qwsgn3wJAu2cU/z4s0qyYlLp6vbN3ka63/bzCE4ivsxNZJQ/rmYgdHgPKz8QNAAB66KQkqn0heeg33V4bbyB2pE4a6l7ki4riFdX+4pWxjVkJxBoJxP5IZyJ6AvEEC517KXlIAhELRhIR63NBcqE48ApEAJiYKuqKbcUjxa+F56IKxLYqRPHEYVp5mEsVoihxqMqKWy2mTYqOU51uoUpE/QGh0vu4IrbveEUiAAB99ZnjQwViR1WItc9ZJMUeZXlp3DJPdniTD7OhG7GKb9q2Qr3oQIY4E8doKsdvluSrFF+jvJqOtddvskfFENxt/10UTeXHQgBAm+r/2ZcTY0TVEyHGOTfub27MIIH4JnsPClUgihab3mGx10JjHq9r2TeuW8siKr/3lXA3HgCAXOmayV1p8bEjiuL7Gsd6JYxu6OZ4Vh6mjqjgL/8mRPVl+4Pvt+9VoRxR1Yre5oyeOMNCbczeDahzrE7Ps4DpkUTEZNJW5Z22I1OklFBrLkUPABjtza+xeJFtHGnxvfVLa/JkYi66rKBIlbdaeDvzlXYN9KkwMkLzENXa4+09wJLQPETNRQTQU83ii7bZiEokKhHUTCZuULVnv325pChf+t7in7+0qOMgh9uxWoG8bbZ/I4VXIsptFj4HEcgESUSMpjto6V20UXQXzROILxjIAeoU+3sqAGAqas9V6Z7CzgyP/EIIqc4LkVIrS67tLJfbvl9xsm3rxtJ2ezzV4sIZ7RurXXEDAIAe8ON30lVc86pEJYzO6/aY+edViFe+1OJ4e+HR8LqoWjGtWESmdKoYprkcSudYszrPAiZEEhGH0rzDdOah7LWdlWIckmoAhkoVglNVCe6zSFqa0yFG6e/jA9nVxuyRm5db+IqTnTvbYneMaJf9N1AAAJCbZ8Xw43cbLa7ymSPCdgfKLZuK6jPvqMP9ZVxQpTzFvrdvfx3InI/L8tZleZWFFlJJqxOBBSOJiMAHuQIAZqe0i4Z6cRXzd18oii/a48NPsdcesrihKF7//vA95+MTt2e4f9aMHtHYQs1CVEW6VmnunG7H6zenEhEAkDElDxeguitJEO6104lycx1vt6fVo/uL8oSn14HM6fOjRKGm3IjOqWZyXgVsDElEHGqSOx2jFhYBgCGapkpQlYav/0L7Ssb++7zNfkaRMw2DT6sslEi8o8P3XF1hX/xMWh4P7d7Nlm8AABatmUBMR5FoYRWnG4NppVmXDrdYubo/sfjJ4sfjNnpHi9VpFqIHkBGSiAh8kOso6cIqKa9e9F/7kD1XAADa3RfDPOM7yqLY9I9FcbTtN6sXhBeb1PY0qiVq0ZQ4lNPHHD82qvyNuAEAQI80ZxrreD6DhSjLzZvqcFuKu+KWfe9pm+3rSUVVPcrKzDm71c4D9XlR5eHD4aWDXGGvK4AM6OolTkwAxvAEYnMuYlsSUY5iJwcArbaG/eQzPmmHYPOIH4b3v8KOyupvjpqViFdlsl+9Lr4vdRl7EtErMLparbl6bXgsP2bbp9hGvOpK//sAS0grNGulZgA9pZuCKSUO5QYLjUMWVSN2PEu++uuQIDw+rszsf+yeQklE+34VEot/HE49ih8tWWAlKzfFz41uGutzokpE2Woxyxu1wDpQiYjJ/NWXQ4gugONF8CGtz0oekkAEgNHutH2kwjxSHF48Y39ZR1HcY2f5T9Sv15Q01FWAXwnkTglF3UnvzLfsv8fp9qhs5YIGTQEAMClPIKbXRmplVngC0WkkSJd0GmHx5SrEilJ/zg1FWTbLIpEl/TNp1rQWU1ECUevKXWb/hgogEyQRMZkzjw/RpOs6ru0AYGqPTFMFkFMi8UI7sVW8KSRCa11VIDpVIB7kDItzi6J642oAAJAjXRvpuH2ZxTxzd0+Jj+bTlcUX7XD5f/YX/7s4qY7ysE11BSJViBl6nZ1HKXTfVCFUICJTJBExvaSKBgCwERcXjxS/EBKK9crNFindiXa5DNa+2t6HInWLPVfHcaezntIzaQAAMvfgiOujGy3UwqxQlaK3qnagund/HfXh8rvCayueGQP949WHmoPY+fkVsDEkEdFOF4QKqfYVxZ8+URS744FRcxDTWYjpgixn2OsKAMCh0v3nWvq0Ip+3bmkx5S5XaJbyM/bl5hDl79UvAQCQNa2+vCPGnRZqS1WcGkO6aGnW1fyIK/pPfKd9+adF8eJyUx3InF97A5kjiYjpTHrxCwA4mBZK2Rm3XXlDiD655JgQTbNoaV5paz47RHVJeAoAQG6eGq+TmvOM08O8JxO7FBOJaldWuFewfGo/aSaiqPpQ546akZ3L4nqAIYmIVdWuEKKLQb8gLE8MkUqrD8UrEFWt6BWLAIBDNfefo6StzLk6z96jFlTxVZrdNBWXU9EZtf4wLbpyXv0KAABZUjWi02hfr0AUHT8VG1S+eDVpWO3bb19OKcryB+vnP11aNKakIFPpwnRqTd8WNmsX2/cUQCZs17KJexRDdH3cEaWD8T2BWJ4THtvcHX/dKY2D3gXx9Z0bPxgCwKDprnMq97vPNyXvV0PB5br4mhZg6VJ1YdyIw4Fob8YS2rLlecWePV+JzwBkz1dldp4s1OxDVSR6JWKaVOxw0Yzqgf3FP8Tf7ogiJBCL4p7i/OKBeuuk+mtRvJuW5jzp+lqfDf98+KKlXtCTJhCv6fi8ClgHKhGxSsnDUQlEXdQqplmNuU/zvAAgJ5ox6HMGt9t+1GORqjtDNHnisEl30f3G00ZUV4Soecljs/QRAIDMKJnobc1pArFj5THHxi1T3m1fHrY4uvhwcWzxYRKH/aDPii++I2p595vKJA6RGZKIQ6UKxLQKselU22kp2ujCtnlhqArEUVWI1YdCAADWllYeLrIKUa01aXvNJLwqUSfDngTtlHp84p0sqhABADlIV2XW9r32qHDpasyqQOywCtEdPGpRB+GYwayOqSsQqULMmDr8tIK3a87M9EpEkonIBElETMYHuh47xc5L87wUn/+hEACAyeywfadikdWHzcHw5dYQbUZVIzZHX6xHeZl90cze08Lz+ky766n0AABsgJKHKpI/0Y7b6h9WeDIxPZZOe3NuEuWBxiH75BgaxIjsPWCfCeV8RfdKXe7jbDBYJBHRbq/ttHTQ81XG5CHbVuiicL0XhjqwKgCgD86x/ZVi0dSZpJBz7f0ocqJFVH7siRBymh0jFJ272UJXabQzAwAyd3WMphvsmKno2MuKnUVR/aZtJbOnyszOF3Awdfc1Oze8eMepAlGjoBc91gaISCJi9taTdFTyMk1gAsAQeUWiS5OH0yQTfQX9cS6z7yvc1Ptuu3gpdtgFzDvD0y6Vd9gXnUHrFn28TV+9MQQAAIs2rkginYc4w9mIBymvtmDsR2+cYKEmC90rbVuNeZp1CYAZI4k4FOupAHw0hjvKLiYVG7HPfr0CAPpgl+2vFIt2Y+M9NJ8v2uZ5vZ9vhagHxwMAkLFrYqh43hdM0/Z5dsxUdOAXq/11vKzcVPxWcUEdRXl5+Gb1yyGQL79hq8/Gyy3UdZK2NAMZKotiUxW3scw8gThNAu/J+GsOt1/zxbj9gg0e8Ly68PEN/j4AMESqPPS2l+Yd6UkTi7MY0F1XH94etouPhIfyOeGxC9Vr48Z9Fmdb6Fa9IZmIJbVly/OKPXu+Ep8B6IW0YEMzEeX18TGdizhqjvA6KIEoPv1Q06h+yRdRqc4Ljxq4V88XRpaui58bndfdaeETW67gehl5ohJxWTUrD9dTAajkoULURaYAgD67wPaLir5KE4XanqYicZr253V6dvH7Fk/GZzOwkjRUIlEBAEAG2hKIKSUOFfts++rujsXvLzfVodyTok4gVntDrLjQnn89biNrI9avA3JCJeKySisPfQ7W7ikuNps09PXEuP20NX4fqg0B5MoTiDsHuH/yBGLXrdB+YVI+p3h2tb/4ejyrKA+LlRBdWlmheVt4KH8jPAJLhkpEoGdGJRG1SLJ4JaKKMrR9SXfH4vNjNaL/Ee8vvhY2yrjkb3KcRoauj5+d5rzM9DkrNSMjVCIuq/VUHo4z7cIoAJAjJQ+HkED0qsO0+nDaysUpvKZ4sniNXcR8w1uoTHUgXNR0pl5x0nt81M4cW5oBAFg0v/ZSkjAtAmzTYQLxR+zY21zct04eegJRlDwkgdgPmtqiOOQfFcgHlYhoV6nW3pRefggA6A1PHIrn9bqcgdigBOKfJ2cTZRWfaCTGY/G9rFXFvpY6iajEoa7Q4tk1MxGxpKhEBHrGKxGbrcxeiTijY7CSiO6Pkxt56JEH4mfnKgutHye+uAoViMgQlYjontqZvaV5Es+yn1Ws5Wj7GQUATGKb7S/SGJK06rDjgsA2H5/LhYsWbrnNYrfFnSQQAQD5u8ciTSBeaecjii5UxxR/XGyOTwKNFVGgB7SgikL3Rb25QsnDE8Jm/fr2gZ2/ohdIIi6TrbaTUUxqXFJOFYgHjlhdoTkXWnqsz4siAMCsafVlX4HZzbAK0WkGYh3lfXZ28dkQGuz+7Z8O0Sk7GKzMRwQAYIHSeYgpdRQrukoajqAKRK9C/EbxwjrQQ6pa3W6hasQj9YLRis1v49oXeSGJiNG0A/OS6mloQZVpFlX5pv2sYi0Pzv4iGMASud32GWkMhQoQFGlLcw6qXXFjncqb7ItmIp5robNqQyIRS0qtzGppBtAj3sp8b4w2l9r5iKILpR3nFZX9fgr0i9aIi+vEFS+3UNXqDgtVI8bJYkCOmImI0bwKUTOtMnBRLM2/lnkfACbhLcxDSiBKW/JwRguqjFXpTPjhsF3fXtcygzozjssNlm8Pj5Oq3hg39Ov9Dtfj9vvcEbeB5cJcRKAn0nmIvqKuWlE9qahRvjoXSRc661KdQIzDF8tbwyP64277XOgzsjM8rZfZ9iT0joGdw6IXqEREb1xbvKQOAJjakOYi+jzERSQORynPiRsdKD8WNwwJRADAomlVZvHEj5JAnkC802Kt1Zo3StWIUXVgfx3I3F32b6YQNWpo3LM+NwolotVwQQIRmaISEaNplpWUGuaRgeqo8Fg+FB4BYFJDqUpMqxyaFYmLTCquVCXq7Diu+l++KjxOqjrFvngVI8cBLD8qEYEeSecipis0q8JM5nT+4QnE8uF4iX8UiagsKYGYLqai0yNRo4XamkUrM/taADv5d0Q+qETEwdTCnMtiKs3FAXTRyIUjALQ7w/aXap9aaj4LMd5UAgAgN7rfpVAVoleX6cZe27iRjvkiZ8jc5iQpqIVDnRLQSh5qJuIcPi/AelCJiIPlNAfRE4g6ANeP3IEBsE5DqERUElF2x79jWpUozefzFCvbq+q59eO6L3CqF9gXL+uIGdPysfAILBkqEYEe8ApEtTSnsxEl3vc6SE6jRrB4mocoN1r4Yip+mqNHPi/IEElErMpsIZUVW+P7IokIYL3SeYhDWWhl1B3sthPStOr7mu7/+6TzmT5uZx7i94d+ZZLFsqrT44ZKO3yxFpKIWG4kEYEeSNuYJU0cejKRRBBG8SSiTopuD5srSURamJEpkohYVcXbH2WcV5WDU+OOdS87UQAbNJS5iKlmInHUhUyaREx1lFBcmdF02KbiR+JK+/8jnn3otfT7rVaSiJ5A/Jb98N1xG1heJBKBnvBkoicRnxofNd/um1zHoMWt8TPjC/JoNqLulfpCPCQRkamyKI4miYigui88lieExxycGqtX4iz94kFmfABYh22rlXC12we2Lzk3+fv7X/2axn+Dixv/jaT5Mxt0fhV25ldbPLvl7KP8U3vRL7xOb/mzq832RVPHdZveKxH/NjwCS2jLluOKPXvuj88AZOXEeNzcZ8cr31YS0Y9j7s5uj6XosVvj50TnONpWBeKR4aX6Pmm6kvdOPjfIEwurYJWSh4qHbIemyMFe23kqAKBLSio2E4vL7MYJ9qNKGKZJw44TiE3fiG3NUynvihu6QotLGVaHhwAAYBE8gTiKiiK8MAJo0v1VhU5tdI9UQQIRGaMSEQd7Mh7gVOBxFDsvAEsoTR4OrSJxnLQSccYJRFcd8DJzOyHZH09Hjvl6eCy/Jzymqh+MG/7rfHDQPvv5J+M2sDyoRAQy1pY8VDXZyWGzPkSpGMITiBRGIOVViT4LUVWst4XNuulCdvGZQX6oREQ7EogAlh0JxNGUUGxrb+5YedjRKzGV8nNxQ3TX65yiqH48PAUAIBdb7ViqCjMSiGhSS/NOe9QsRLU179aLQP6oRBwqb1eeNlnInTQAWD6eMPQKxObzeahujhupuNBXa1XiS+yLz0bcFrdNeUt4BJYAlYhAIp1BKGs9n4e0GjFdmdn5fETmIiJ1g31ulDT0e6g+C1EJRZlkDA2wIFQiYjpXWqiL7OjkgAkAWC5KHs4zgbgedTWirtjOjY+6UvOrNQAA5kAJy1FJSxVdKHlIAhFtfCKLXGBxqoVa4XVv9AyutZEvkohDpQrEffZ4FzsoABi0ZtvynFqZD1GeHaI4KYS2//45ISYSS0Boa8YSURWiqhEBmGbCbq3n86DCCoUSQiq0UALIPSseS9XSrADcefY5VRWiPjdKHrYhkYhMkUQcskmLNu6wHZhCzrId3oMxAKCPhrYyc5/dE2MUrdZc/k58Ip5I/MEQAIDlo+ScJ+hELcVpW3HTWt/vUltLMzCOCnsUmouo2GrhSCQiQyQRh04Hugds53RlDAAYCpKJQbNtOadWZrX1+CqX45TXxw3xK7gziqJ6b9wGACyNI2PMklcYjuPf98KMtjXCNE9e1Wbe0qwuMDrBlotmOrfOdR5B196Kq+wzoc+NV6+mBT67MzkPA1qwsMrQaQcmWhlqR9gs7rWd1t3x9VPYgQFYUp5AHPIqzc22ZX+6yIHeT9qb+Fbc9ipEXSy+YI33VL0lbuhqzW/j25l5+Y64DfQTi6sAibSicJaty54gHNd9lSYRXVqJqJmIzUUplUA8L2yutLHaMbc6oF5oO2Qd1paJRNY8gViPZFnDdfHz8HB4qBOInkRUNaLsmuHnGugAlYhDpkShdlrH2o7q0hE7q6vtZxQAsOyGXpmY+0IqkzqoKtGoGpGKRABYLrOefTjJ+Cb/mXSBjJALDNRyreSh4hzbVmxe4/dE/6zMdF4HTyQr+aztj76vflq3MdPKjExRiThk46oN9T3tzG4MT4tL7Ge8YmVZLjQBDNuohOHQKhNz3bd7pbxudK1H9QH74rf3ZZvFrrBZXhkegR6gEhGIvApx3ounrEUViapG9CpEryg7MT56ElH8Na6nhsurEd/8vqL4jX8dtnW64glo//wIbc3IEJWIQ9KcwaHk4ah2ZX/93BgAsGyULEwThs3nWBwlEHUyfZ+FL+w1NV3RxYPYSkvzGTEAANggJQ+9pTmtRmyb2agWVdpUIW9+V4j/HhOIey1usxi3kByQESoRhyJNHq5VRp/OANloJQgAID/n2r7dd+s5VkN4EtFnI562jvdY/a59UfWhKU+y558K236lV8bvAT1ANSKQ8JWZvzmH49e4P6s5E9ETiemMxNyqJrF4XomoytXYILFSfXjbX9j5ybmrrcxUIiJDVCIOzTRzOEggAhgKDT734edDkPluvdpUFtX3lmF7q23HgfNTKX82JA8VAAB0rTkzUcnDNIE4TrU7BIZHi6oo9M8/6vOi5CEJRGSKJOJQKHmoaLY0u6faawrxIcFN6c8AAPpLu3IPVSVmSgnEzpQvty86W489ZtXt4REA0C+qCtSuXDMSvVJwVvRnjap4TFuZ03Zm11aFeKv9GkWqujdEcxvLZ9RiKZqVqVOUM3+gfgrkjCQiDpYmGVWBSBUigCHw1ROHIOOk4SjlYUfHra5MUy4CAMiCEoZKHPoCK06vp8nE5vNZ80OKqssmcZ7Fpu+xgxszegdJFYgnW6hRoq1ZglWZkTmSiAget4tnxTiT/AwAoB9utP25R+bW1c48Cc1JpCIRADAtdWdpRV2Fm+Te1OmNY+7F9vu89ZmrozcYw7Hc/vQ/FfUsxA+Fp7XXW3R9rxSYIZKIQ3KLHaR0HdY2F1GrXyq87RkAhmib7QcVy0pViM2LnqGotNSzztwlvdKz7ZVFVwAA2dJiWz5PzsOp5bitStHNsjpR11fNduZxVYmjRkdhuVW/VhQf/LmiONO2FVqVWVWJ11ikmIWIzJFExME8mQgAWG4Zt8uofdljdiYpGQEALExzHrs6ojQLUZHOKWzOLBw3x3Aj0veTdmdpW0nBtrmIa7nGfp0Cw3FPjPQ0hEpE9Ehpn9gqbmNZqQJRzprgANVMIJ7GQQ3AAPjKzEOYi5gmDzO9293WvtxpQrH6bNxIr/h8Oz4yqwqZ2bLluGLPnvvjM2AA2hJ2Xmmow8Q/CZt1haJ+xr/XtqBJF9KEpujPbCY5pa0aclbvCYv3QPz3HreWQPWW8PjBd4cEok5ptH6On3p4h8guPifIH5WIy84TiJNS0pDEIQAMw1CHd5caaK/Qis2OykQAWIhRrcZKynlirvkzSiAqeaiYl/T9tEkrFUUTNHyKBoZlu30OFNXNIdyF9vm5Kn6G2kZfnmO/RgFkjCQiDubtzCQTAQzJUFZn7knScPatzIlmIlEViFQhAkA+mhWAKSX1dLhQ9Z/mEM6j4m+tZGJzXmPzPV1p71VxXT+OyViDKhDTKkR1O3zw6/FJVP5OCL/WvtNeU5wY4xwLVSWmDRJApkgiLrtJWphzpgveoVbKAJgftTN7S7Ms+wIrPeHJxJkmFCv1EyWlIvWKzSy0AgBzk84wbFYcKjmoQ4AqDvUzamNWeAtzU/PXz0Kz4lA8sahozmRMzy9kZwwstx32GSjPLoo3v2y1MlGLqShEn2F/vksvRLQ0I3MkETdqHgeqjfiivbeT7XFcMvFW+xmFUIEIAIHm0zRP/PuuByv+aR7iRVWIovpGiLmhpRkAsqdWZoUSjF6BOG415FRbAnC90t+n+fteYNun2qNHG7W2or88MZiqfsG+7LB4o21vtnhLUXzwXfW36s+BVxq2nW7oHI2VmdEDJBGHQrMRm/MR0+RhrtiZApiHZjvz7Uu+30nnNGVa7X1t8RL7uj3GDJUnxVBbs65K438Yr0asbg8BAJi9tIrPFyjxduBxyb901ea0CnAWxrUyN5OJbYYyQgWrVJXo3vx/w6NONy6wUOWhkot036EnWJ25S80DXU7aVmj2BOLpHMQAoOYtzEoiLvOKzefGv5uvBqibNX7ymsuNm+o77cu2sF3+UXictbq1Wfw/jLOz+zK+F2BBWJ0Zg+PXVqoyTBdQ8VWZm8lGWcR1mCcNlVwctY1heFv8N/fFU5xXLGplZiW7fUqLRjCnLc60MqMHqESchaNtJ6HIiZKHmh9yfXxfnkDUQFcN9m3TVqK97B6yv68CADx5uGwtzXKj/d2aebJcVB8IUf5tSB7OK4EoqkgsdluozyjtNbJt5iRiwZRAVCIRGIQ0gZhqmznoFl3Ioeu/ZMTuSBfbzykwHFtjvN3CE4X7LNT5nGJlZvQAScQu6cCVYxXiLGjOhyLlr2kOo6LP7rL3rwAwLKpAXPZW5lFyGB9R/a590Vm1XYVVN4ZYpINWbgYAzF0zYajqPiUYFdpWtM1EnNfcev35qiprW/9LCU+FL9Z2efJ+dHjx4g4sD1UgKqqnh2hzg/27qwLRqdBH9zCBniCJ2CU/kD1oOw5Fbt5k70khamFW+F2RNprdkM5vmNQ7Y/QxEXeU/X0VACCqKJikqqCP2hKGqrqctPLyMvs5hVOLtLdJd+XzPxAq53UsuSlGShdk6UVZF8qfty/JP3wzkVjPSNwdAgDQPa9CVHLFKRnnC6qM49djrvl8lrzCf63zhmvs73KfPSqwPKpjYzxiT9IPr/EFVfSoMcsKLX4quncqSiTSzoweIImI9dlpOzhFqvna9/1ZiLaqRVl0u3R1aYg2m+3voQCA1DRJtj6ZZpj31fazioaLPlLWsSHlz1pcWRRf+iGLH4gvmpstfF6Q/mzNHPK5Q7NU2RWeAgAwH6MSfmlVofIzjRzNIUa1PHdtknmH3uXwm7Y9j+pILEjjg1k+GjfMJY3PSfMmtc5xmnMUgUyRROySl6zn7g47eCnEKxK71JZgnMYQZzECyJOf+C9r8jCtRlQi0VuytD0usbjTQoV4V2xgXz+JU+z315/jd/Bf1/jz1L6m73VdkVieEOLAESF0pr9SkahZiUfa87QXCQDQGeVhNCIqva7yUbVKDKavp4usKEGn5+n353F9pvfquSNVI+p9pou9tHmn/RoFlszrLbbbOcIzwtOUFlXR5+PU+lmQy2J2wBRYnXlafnds1gejWfIE4mmZ/h08gegXjRtJSDZV7w2P5TvCo3jLNZWHAEbxBOIyrtTsmklDvyBq+ztvjT97p32v+qmwXf5+eOyat0x7wtKH0fuFo19YStcXZE/GP+uwJ8KjEou+wArzErEArNCMQUivt7xyz/fzfn2g1ZrT1mZPIvr2PDWrJ30+4lBm5WPVqHMiX9T0XgtVIKqd2SsRWZkZPUMl4kbpoDGq7D5XOvj6AbgrXbZ8NWcxtlUmsqoZgHlSIm2ZE4jiC6u03RVvtg8reaiYByUP2yoeve3Hj2mKrisSD7c/Q3GQNGsJAJgLVXCNun5RQjGXBKIMabFNHEzJQ0V1VYg2SiR6ovlOi66vy4EZI4k4rXmUxM9aX65/Jm2LXiuhmCYhVYH45n91cFKS+YcAcDAlEidNnPoJ87xoIL1C+31dOMo8TsDV1uyViVJ91uJTIYA5URWiqhGBpZZeb2k/7/t6p0ShVyE2v7cok1wfLutoFIzmyUQlwW+08KpD59flVCGiR0giTqtZebgMScX1qnaGEJ8fNQttq0T7RWQX0iRjc7VRAECo+lPMa0GT9VC1os+YmsWMRHfgOXFDV7Dx7D9NJrJyMwB0w6+5tLtVKHk4qtJw3Pdmaa1rQY3/UJxjcaI9V2D5lW+zL1tjNGie820WqkIEeogk4hBpFqLiFjuYKaZV3R4iF2slFD0JWb0lRFtSEgBG2Wb7SQUC3UWfZjXnWfF9v5KbusPvN4OU5NQJetcOamvWICMlEL0URtsAgJlSUlFtywpPGK7shuMx4Gh7VMyb3lPzvThVy+8Lm+gJLYyz1uI4k/rtN4Rzp3rhuvqVVT9vQRUieoYk4rSWofJwvcnDpvKCEH2XJhW1Wla6YhYANA01qajEYbMNJwfpeIqUKhK7ri5vnZEYS2S00EpdjcjKzQDQCb/uWlSVYRfS+cFKFpEwGo5yW1H89ncVxVv/a1H8qkV6jantky1uttD5VQ43Z4EJlUXxXFZnHppb4pKbZ/lE1wndFX/d5il/3Sw9FN/TUSPeU/VoeCyfHh7XckP8/XaEh2K3/b5Pja89ntHfG8DibIv7hNsHtk84I/69fTVBd+OC/zts9/22vY+LbdsrQcQLBK+Y4Xusvhw3dsXHrXbMeVncBrq3ZcvxxZ49/rkDlsyo8+7m6/5cVioA4+ODCz4uPSu+t28u+H0gD9X7iuKjbwgtzE2a6XlP2KyvO4EeoBJxiJQ8nDaBmLPv+AvbOf9BfLJB59l/FwUArMWTiUNwrv1dlTzM8QRXyUNFygfxe/Lwsnn9W2kW4ml2THpKeAoA2DglDGPRd01JuvQ5kJOj7fOpcO95Q3j0cxNRZ4fipPoZ0CskEZedqg698nCjVIHYZRXi5fa+FBtRVyDq9xj1+2gIyTqW7dSFMneDAOBQqjxMIyfX2Pu5KnlPb7Njw6xXbi6Pty+ajp7ZfwsA6CNVGio56NV8kiYL0wpE5xV/2t/PqwpR76PtvYjej+Ik+74Cy6mZLBzlnfZZGLXe2rb4CPQIScRFmHSHswhqy1ppzVoGmkvFbCoAHVIbs8dQKFmoxUvU0nxqjJw17x/Nsp05eo1dCbym+J2iKP8xBDAjamVWSzMwCGmizqu4nJ6rSj7X6yosl1FJ4ea1vRLZ45LZ+pZfnl5qQfEKeoaZiIvgO5lZ3yl7LP45T2v8ObfG109v+fM9gVhXVmSuuig8lteGxzbVvwmP5X8IjwDQlSHNRvR5iOKbezP+e/ucRJ+P5VUsM5yRuKX62sof84nyuXELmA3mImIQvBrRk4e+k/XKQ/++9u260cX8csySJxDvbXzORr3unozfv9HCKxL1o2piEBKI6BkqEedJbVWKte5OzNPV9n4UTsnDNIF4gX1P0QfVD4eY1Lg2BAAYJ52HqO2hzEfsy4luc0ZiShWKOhZ3TGONTgybAICNap6jpy3NTXX1eYbHpxPt76CQrfaoQH8pSaiY9t/yTTGUNPTF6ZT0dumNWqAHSCLOy5W2c5j3sU0ViM0qxLvj+2irQhxHQ/UVrvk8Na/EoyoQx1YharEVrZJJFSKAOVjmROKoVpucW5uVSNSMRIVO1lXJkp60d8yONnVQhQgAHdF+u9nCrCpEbx/1ikTpS3EAycTl48nFSemOo6/IDPQQ7czzoiSiXDrFDmYWlEQUv5A6bcL34wlDH6LffJ5qJhB3jvmZtu+tl1chln+y2rL96r+w5/8ibANA15qJw2VubU6Thf7X9Jdybm0WtTc3W5tduhDLBjyj+lr9+AhJRMwB7cwYJCUJvZJL0s4uTyDm2tLcTBzemflxE2vzf9O1/i2vjz/3qfBQ7IuPqqCllRk9RCXivCh5uOgEopxi70ExreYqnM3nKSUGp0kObqRysXpXCFHyUJEigQhg3pa9vTn3hGEbr0rUCbtuonWUOAQAdKxZUai5h4pmAlH78ubPSttrOVCiKQ30g3/+mouqTNXObP/ep8btlN/cBHqGJOKsXG47FkWuVIE4aRXieo1LJo773qik4qjXf+bnDn19RwwAQDeUPPQEona5Cn+e+2rN42x0PmL1ijoeKd5r8TXb/uv4DQDAWJ6gmVbbaApVILKwCuZt0oSwFlQ5IWweNEC57doWyBxJRCzeuITimjSBag1qY/OVOmXcPEcAmIbal9NIX1tWzYSh/qp9/OuqGtHnbfnCZxvycou/igHMllqZ1dIMLJ00GdisKFTy0FuYNZpC0UwckkxElzR3sw5th5dq660oVUWi5iGqM2LcYkFAxkgizsrDMTC9UUnF9PXH7KRCIR/69OpcLjfq92hqq2682J4rAACj9bWtWSfuvt+vV/QMmysus+8pJlV+IgQAYDqeoBlHLZ9p22df2pcBudo+mwrdsNTHVJ1ynozU51of/3PsGwqgJ0gizlpbkgrdOfNldvH2o+OH0uqiUeHGzXNMaTEcXxAHANaSzkJc5rmI3tZ8hv39FKJ9sK/UnHtrc1vi0CsMdAMprTSYVPU++2K/tnxDCADAdNpam+tKw7AJLJQqYNOFfKZdZbtZXOS/FTOa0UMkEWdFOwR2CrNzRQzxi9j1aKtY1PB9BQBgbdoF93UmYltCUa6wY8BULc43xgAAbNjRtu9VOO2nvXW52a5M+zJmrZkwnCZ5eEnjs6m5iIozLK7TC2aX/YwC6AmSiLOQtsNO2laLxWu2sOWyojaAfhjSXERR9WFaBe4VioqcKxLHVaNzEwkA5s8rEJutzWr3bGt3Xs9iLMBGqJIwXZ1ZJp2JeI5Fsy1/V3wEeqgsiudWcRtd8QQiFyKz4Xd/1jPMdhxPIKoCRfxAcW987vNWuNsJAKvGJQuVUOyD5tiRI+PjJMfx6tlxY7+dVT0lbk9gVscyDIYWVtECK0DvtSURdd7tC0/4634u7q9rzpzOyzlHH4ZF/junCUS/NpyEj8byUSlaVMUpufgmPrPoHyoRZ2FUexS6oX3tLPa3Sh56AhEA1qNtFuIyz0ccpy8JxHHSzgIAwGwoSdhWcTiKkof6eZKGyyttaT/RHhXPsm1FSolFTy6m212bJnGY0i9TbKufrVICEegpkoijzHInhG7cYv8+ilnRwWJUFSKfDwAI0jZml27n3NrsfPSIjx9R25KieVOwdU6iSmIspqlCFFUgUoWIDVAVoqoRgaW0VoLQF2JJz9E5P0ebUZ8LT062UeVhWn04ansc3YT8lD0qtCqzqhBPthC1M1OFiJ4iidiFdMeklihdcKSrAaNbzeGzs0wkAsA0mrMQvQJRr/UhmYaDNZOIqn5RuOoi+0I5AQB0xpODTXrN25ixPJqL6Lh0NeR92rZHtQSnKySLkseecE63c5W2M3MNi54iidjGE4Jd7YSaB8NRO8tFG3c3pgttFRyX23PFepw1x4NE86DUh4MUAOSgWaWYu2ZVovjMRE8qNtucy6/EDQDAuqXXS2nlWLrt599pS7O/xvk52oz6XHhyMv18Od0fVDQrEtNOtbX4Ym0vt22vQJQzLbaHTaCPSCJ2wXdMZ9gORvuY9MKjj2adTOxK9WdF8drPzjeZCADT8MpEr0DsUzJtI7zqMo2+Ocfesw9Cb/JkYnltiFGaFx8AgLUpOZgunuLber2Z8NFzD/SPVxyuVWQzKhG4EelnZq2ilmmSh036rdNfutdC169cw6KXiuL/Aw74E+NHwRFaAAAAAElFTkSuQmCC;" vertex="1" parent="1">
          <mxGeometry width="1297" height="834" as="geometry" />
        </mxCell>
        <mxCell id="DhFTvpZ9b1hXIEYgZngR-4" value="" style="ellipse;whiteSpace=wrap;html=1;aspect=fixed;fillColor=none;strokeColor=#FF0000;strokeWidth=5;" vertex="1" parent="1">
          <mxGeometry x="836" y="314" width="58" height="58" as="geometry" />
        </mxCell>
        <mxCell id="DhFTvpZ9b1hXIEYgZngR-5" value="" style="ellipse;whiteSpace=wrap;html=1;aspect=fixed;fillColor=none;strokeColor=#FF0000;strokeWidth=5;" vertex="1" parent="1">
          <mxGeometry x="503" y="94" width="58" height="58" as="geometry" />
        </mxCell>
        <mxCell id="DhFTvpZ9b1hXIEYgZngR-6" value="" style="endArrow=classic;html=1;rounded=0;strokeColor=#FF0000;strokeWidth=3;" edge="1" parent="1">
          <mxGeometry width="50" height="50" relative="1" as="geometry">
            <mxPoint x="645" y="121.5" as="sourcePoint" />
            <mxPoint x="580" y="124.5" as="targetPoint" />
          </mxGeometry>
        </mxCell>
        <mxCell id="DhFTvpZ9b1hXIEYgZngR-7" value="" style="endArrow=classic;html=1;rounded=0;strokeColor=#FF0000;strokeWidth=3;" edge="1" parent="1">
          <mxGeometry width="50" height="50" relative="1" as="geometry">
            <mxPoint x="852" y="258" as="sourcePoint" />
            <mxPoint x="863" y="313" as="targetPoint" />
          </mxGeometry>
        </mxCell>
        <mxCell id="DhFTvpZ9b1hXIEYgZngR-8" value="&lt;font size=&quot;1&quot; style=&quot;&quot; color=&quot;#ff0000&quot;&gt;&lt;b style=&quot;font-size: 17px;&quot;&gt;(-0.55 m, 6.16 m)&amp;nbsp;&lt;/b&gt;&lt;/font&gt;" style="text;html=1;align=center;verticalAlign=middle;resizable=0;points=[];autosize=1;strokeColor=none;fillColor=none;" vertex="1" parent="1">
          <mxGeometry x="640" y="108" width="160" height="30" as="geometry" />
        </mxCell>
        <mxCell id="DhFTvpZ9b1hXIEYgZngR-9" value="&lt;font size=&quot;1&quot; style=&quot;&quot; color=&quot;#ff0000&quot;&gt;&lt;b style=&quot;font-size: 17px;&quot;&gt;(1.13 m, 3.93 m)&amp;nbsp;&lt;/b&gt;&lt;/font&gt;" style="text;html=1;align=center;verticalAlign=middle;resizable=0;points=[];autosize=1;strokeColor=none;fillColor=none;" vertex="1" parent="1">
          <mxGeometry x="775" y="220" width="150" height="30" as="geometry" />
        </mxCell>
      </root>
    </mxGraphModel>
  </diagram>
</mxfile>
